<?xml version="1.0" encoding="utf-8"?>
<!DOCTYPE svg PUBLIC "-//W3C//DTD SVG 1.1//EN" "http://www.w3.org/Graphics/SVG/1.1/DTD/svg11.dtd">
<svg xmlns="http://www.w3.org/2000/svg" xmlns:xlink="http://www.w3.org/1999/xlink" version="1.1" id="Layer_1" x="0px" y="0px" viewBox="0 0 1708.6316 2297.5237" enable-background="new 0 0 1708.6316 2297.5237" xml:space="preserve">
<g>
	<polygon fill="#A39179" points="683.8158,2237.262 733.0658,2103.262 722.8158,1945.0118 844.5658,1786.5118 969.5658,1946.0118    962.3158,2113.262 1011.8158,2235.262 1029.0658,2100.512 1064.0658,1968.5118 990.8158,1628.7618 896.8158,1558.0118    789.8158,1558.0118 695.0658,1626.5118 628.3158,1966.5118 665.0658,2100.762  "/>
	<polygon fill="#53504D" points="844.649,1786.2618 930.8157,1897.0952 846.1907,2001.0952 760.4615,1896.0952  "/>
	<polygon fill="#585653" points="890.6491,1558.0118 843.9825,1698.8452 793.9825,1558.0118  "/>
	<polygon fill="#BFB7AC" points="628.3158,1966.5118 595.3158,2067.5952 453.3158,1856.0952 624.9825,1407.7618 636.3158,1466.0952    762.8158,1554.0952 926.9825,1554.9286 1052.8158,1467.4286 1064.0658,1408.9286 1240.8158,1861.2618 1098.4824,2070.4285    1064.0658,1968.5118 990.8158,1628.7618 896.8158,1558.0118 789.8158,1558.0118 695.0658,1626.5118  "/>
	<polygon fill="#898C9B" points="625.7944,1406.95 758.4611,1418.2833 844.4825,1396.5952 930.4825,1419.0952 1064.0658,1408.9286    1052.8158,1467.4286 926.9825,1554.9286 762.8158,1554.0952 636.3158,1466.0952  "/>
	<polygon points="788.9188,1410.9927 809.6491,1443.4286 878.8158,1443.4286 900.9207,1411.3611 844.4825,1396.5952  "/>
	<polygon fill="#534D4C" points="453.3158,1856.0952 446.4408,1879.3868 444.8158,1414.2618 534.0658,1301.3868 553.4408,1326.1368    555.4169,1348.0358 618.5419,1405.7858 624.9825,1407.7618  "/>
	<polygon fill="#534D4C" points="1240.8158,1861.2618 1250.2533,1870.6993 1246.3158,1413.7618 1152.7222,1299.5432    1135.4408,1323.6682 1135.4408,1350.7618 1072.6908,1407.7618 1064.0658,1408.9286  "/>
	<polygon fill="#B9B3A3" points="1250.2533,1870.6993 1252.5658,1972.7618 1427.8158,1687.0118 1366.5658,1405.7618    1182.3158,1257.2618 1152.8158,1298.0118 1155.9408,1302.7618 1246.3158,1413.7618  "/>
	<polygon fill="#4D4A4C" points="1427.8158,1687.0118 1451.4824,1766.4286 1504.3158,1604.2618 1278.9824,1122.7618    1182.3158,1257.2618 1366.5658,1405.7618  "/>
	<polygon fill="#A8A193" points="1504.3158,1604.2618 1546.8158,1664.4286 1492.6492,1286.4286 1305.9824,1086.4286    1278.9824,1122.7618  "/>
	<polygon fill="#B0A08A" points="1305.9824,1086.4286 1492.6492,1286.4286 1594.5159,1386.2953 1580.8158,1185.7618    1394.3158,1047.7618 1288.0658,839.7619 1273.3158,944.7619  "/>
	<polygon fill="#C5BDAC" points="1552.4353,1164.7618 1554.4824,1069.9286 1439.6492,883.9285 1296.4824,783.4285    1288.0658,839.7619 1394.3158,1047.7618  "/>
	<polygon fill="#A89B86" points="1554.4824,1069.9286 1663.8158,1246.0118 1608.8158,764.0119 1343.5658,662.5119    1247.8158,736.0119 1296.4824,783.4285 1439.6492,883.9285  "/>
	<polygon fill="#5D5853" points="1608.8158,764.0119 1537.5658,656.5119 1399.5658,645.2619 1292.3158,603.0119 1134.8158,630.0119    1247.8158,736.0119 1343.5658,662.5119  "/>
	<polygon fill="#BCB19E" points="1134.8158,630.0119 1113.0658,607.5119 1076.3158,607.5119 1265.8158,471.2619 1380.5658,324.0119    1504.8158,381.0119 1627.0658,660.2619 1537.5658,656.5119 1399.5658,645.2619 1292.3158,603.0119  "/>
	<polygon fill="#B9B3A3" points="446.4408,1879.3868 446.4408,1969.7618 269.5658,1685.7618 326.8158,1407.7618 505.3158,1260.0118    534.0658,1301.3868 444.8158,1414.2618  "/>
	<polygon fill="#4D4A4C" points="269.5658,1685.7618 250.8158,1772.4286 196.8158,1607.4286 408.3158,1127.2618 505.3158,1260.0118    326.8158,1407.7618  "/>
	<polygon fill="#A8A193" points="196.8158,1607.4286 159.5658,1669.0118 205.5658,1296.0118 385.5658,1093.5118 408.3158,1127.2618     "/>
	<polygon fill="#B0A08A" points="205.5658,1296.0118 112.5658,1398.5118 118.3158,1201.0118 298.0658,1058.7618 396.0658,849.2619    415.0658,954.5119 385.5658,1093.5118  "/>
	<polygon fill="#C5BDAC" points="149.0887,1176.6589 144.3158,1086.7618 252.8158,895.7619 387.0658,795.0119 396.0658,849.2619    298.0658,1058.7618  "/>
	<polygon fill="#A89B86" points="144.3158,1086.7618 44.8158,1260.0118 84.4825,782.7619 341.4825,674.7619 437.4825,745.4285    387.0658,795.0119 252.8158,895.7619  "/>
	<polygon fill="#5D5853" points="84.4825,782.7619 152.3158,672.0119 283.5658,660.5119 391.3158,614.0119 541.0658,636.7619    437.4825,745.4285 341.4825,674.7619  "/>
	<polygon fill="#BCB19E" points="152.3158,672.0119 62.3158,681.0119 177.8158,398.7619 298.0658,340.5119 413.3158,482.7619    602.8158,614.0119 564.5658,614.0119 541.0658,636.7619 391.3158,614.0119 283.5658,660.5119  "/>
	<polygon fill="#E0DACB" points="298.0658,340.5119 256.0658,289.0119 364.6491,310.2619 418.5658,354.7619 548.0658,396.0119    673.5658,614.0119 764.3158,674.7619 814.0658,816.2619 734.0658,896.2619 619.3158,830.5119 495.3158,843.0119 387.0658,795.0119    564.5658,614.0119 602.8158,614.0119 413.3158,482.7619  "/>
	<polygon fill="#E8EDF2" points="553.3017,625.498 600.8158,808.2619 475.6908,704.6393  "/>
	<polygon fill="#E5DDD1" points="415.0658,954.5119 535.0658,1157.0118 643.8158,1021.2619 625.8158,985.8354 652.1025,959.5486    543.3158,889.5119 495.3158,843.0119 387.0658,795.0119  "/>
	<polygon fill="#F5FAFE" points="652.1025,959.5486 702.9825,951.4285 677.5425,905.5952 545.1808,890.7126  "/>
	<polygon fill="#979692" points="643.8158,1021.2619 714.1491,1052.9286 755.4825,978.0952 734.0658,896.2619 619.3158,830.5119    495.3158,843.0119 545.1808,890.7126 677.5425,905.5952 702.9825,951.4285 652.1025,959.5486 625.8158,985.8354  "/>
	<polygon fill="#D6D6D6" points="553.4408,1326.1368 548.8158,1229.2618 535.0658,1157.0118 415.0658,954.5119 385.5658,1093.5118     "/>
	<polygon fill="#E1D5C4" points="551.3464,1282.2684 648.3158,1169.5952 714.1491,1052.9286 643.8158,1021.2619 535.0658,1157.0118    548.8158,1229.2618  "/>
	<polygon fill="#E8EEF2" points="844.4825,1396.5952 826.3158,1321.9286 743.6491,1293.5952 698.1491,1222.2618 670.1913,1130.8285    648.3158,1169.5952 551.3464,1282.2684 555.4169,1348.0358 618.5419,1405.7858 757.6491,1419.0952  "/>
	<polygon fill="#E8EEF2" points="844.4825,1396.5952 930.4825,1419.0952 1064.0658,1408.9286 1072.6908,1407.7618    1135.4408,1350.7618 1135.4408,1282.2684 1039.3158,1169.2618 1015.5658,1130.8285 989.9616,1221.7618 943.0658,1294.2618    861.0658,1322.0118  "/>
	<polygon fill="#65615C" points="698.1491,1222.2618 825.3158,1248.2618 844.4825,1274.9619 862.3158,1248.6118 989.9616,1221.7618    943.0658,1294.2618 861.0658,1322.0118 844.4825,1396.5952 826.3158,1321.9286 743.6491,1293.5952  "/>
	<polygon fill="#F6EDE2" points="698.1491,1222.2618 841.8158,1162.7618 989.9616,1221.7618 862.3158,1248.6118 844.4825,1274.9619    825.3158,1248.2618  "/>
	<polygon fill="#BFAF95" points="364.6491,310.2619 270.8158,232.4285 242.6491,80.9286 612.3158,244.0952 700.1491,416.2619    839.6491,503.7619 976.4825,412.5952 1064.0658,232.7619 1436.8158,60.2619 1409.5658,214.2619 1258.5658,342.5119    1128.3158,386.7619 1032.5658,558.2619 839.7325,648.2619 643.1358,561.1534 548.0658,396.0119 418.5658,354.7619  "/>
	<polygon fill="#F9F2E7" points="698.1491,1222.2618 670.1913,1130.8285 755.4825,978.0952 734.0658,896.2619 814.0658,816.2619    764.3158,674.7619 673.5658,614.0119 643.1358,561.1534 839.7325,648.2619 1032.5658,558.2619 1003.8158,609.7619    914.5658,673.5119 867.0658,815.7619 950.0658,896.2619 927.3158,976.0119 1015.5658,1130.8285 989.9616,1221.7618    841.8158,1162.7618  "/>
	<polygon fill="#F2ECE2" points="612.3158,244.0952 602.8158,161.0952 530.4825,125.7619 612.3158,136.4285 753.3991,212.8452    839.7325,477.7619 920.5241,209.8035 1060.1492,125.7619 1143.4824,111.0952 1072.4824,151.7619 1064.0658,232.7619    976.4825,412.5952 839.6491,503.7619 700.1491,416.2619  "/>
	<polygon fill="#837D75" points="771.786,269.266 836.9825,315.2619 903.4103,266.5642 839.7325,477.7619  "/>
	<polygon fill="#E0DACB" points="1380.5658,324.0119 1422.3158,270.7619 1315.5076,294.149 1258.5658,342.5119 1128.3158,386.7619    1003.8158,609.7619 914.5658,673.5119 867.0658,815.7619 950.0658,896.2619 1063.0658,826.2619 1186.0658,837.2619    1296.4824,783.4285 1113.0658,607.5119 1076.3158,607.5119 1265.8158,471.2619  "/>
	<polygon fill="#E8EDF2" points="1205.8158,697.2619 1080.5658,803.5119 1124.6133,619.4576  "/>
	<polygon fill="#D6D6D6" points="1135.4408,1323.6682 1135.4408,1282.2684 1151.1492,1152.0952 1273.3158,944.7619    1305.9824,1086.4286  "/>
	<polygon fill="#E1D5C4" points="1135.4408,1282.2684 1039.3158,1169.2618 1015.5658,1130.8285 970.0319,1050.9486    1040.1492,1019.0952 1151.1492,1152.0952  "/>
	<polygon fill="#E5DDD1" points="1040.1492,1019.0952 1057.3158,980.7619 1032.5658,956.0119 1139.5658,884.5119    1186.0658,837.2619 1296.4824,783.4285 1273.3158,944.7619 1151.1492,1152.0952  "/>
	<polygon fill="#979692" points="1032.5658,956.0119 982.8158,948.2619 1007.6908,902.5952 1139.5658,884.5119 1186.0658,837.2619    1063.0658,826.2619 950.0658,896.2619 927.3158,976.0119 970.0319,1050.9486 1040.1492,1019.0952 1057.3158,980.7619  "/>
	<polygon fill="#F5FAFE" points="1032.5658,956.0119 982.8158,948.2619 1007.6908,902.5952 1139.5658,884.5119  "/>
</g>
</svg>
