<?xml version="1.0" encoding="UTF-8" standalone="no"?>
<!-- Created with Inkscape (http://www.inkscape.org/) -->
<svg xmlns:dc="http://purl.org/dc/elements/1.1/" xmlns:cc="http://creativecommons.org/ns#" xmlns:rdf="http://www.w3.org/1999/02/22-rdf-syntax-ns#" xmlns:svg="http://www.w3.org/2000/svg" xmlns="http://www.w3.org/2000/svg" xmlns:xlink="http://www.w3.org/1999/xlink" xmlns:sodipodi="http://sodipodi.sourceforge.net/DTD/sodipodi-0.dtd" xmlns:inkscape="http://www.inkscape.org/namespaces/inkscape" version="1.1" id="svg2" width="300" height="75" viewBox="0 0 300 75" sodipodi:docname="New_Power_Party_logo.png.svg">
	<metadata id="metadata8">
		<rdf:RDF>
			<cc:Work rdf:about="">
				<dc:format>image/svg+xml</dc:format>
				<dc:type rdf:resource="http://purl.org/dc/dcmitype/StillImage"/>
				<dc:title/>
			</cc:Work>
		</rdf:RDF>
	</metadata>
	<defs id="defs6">
		<clipPath clipPathUnits="userSpaceOnUse" id="clipPath4248">
			<use x="0" y="0" xlink:href="#g4244" id="use4250" width="100%" height="100%"/>
		</clipPath>
	</defs>
	<sodipodi:namedview pagecolor="#ffffff" bordercolor="#666666" borderopacity="1" objecttolerance="10" gridtolerance="10" guidetolerance="10" inkscape:pageopacity="0" inkscape:pageshadow="2" id="namedview4" showgrid="false" inkscape:window-x="65" inkscape:window-y="24" inkscape:window-maximized="1"/>
	<g id="group_new_power_party_logo">
		<title id="title4241">時代力量黨徽</title>
		<path style="fill:#f3f3f2" d="M 0,37.5 V 0 H 150 300 V 37.5 75 H 150 0 Z" id="path4239" inkscape:connector-curvature="0"/>
		<path style="fill:#f7bf03" d="M 0,37.5 V 0 H 37 74 V 37.5 75 H 37 0 Z m 89,28 V 56 h 2.961456 c 2.64604,0 3.077805,0.452654 4.053867,4.25 1.68392,6.551256 1.821169,6.623275 1.90573,1 C 97.994922,56.337719 98.160819,56 100.5,56 c 2.49123,0 2.5,0.03333 2.5,9.5 V 75 h -2.9121 C 97.499293,75 97.105032,74.581151 96.538781,71.229545 95.438944,64.719665 94.03239,63.894983 94.015313,69.75 94.000936,74.67925 93.847262,75 91.5,75 89.008772,75 89,74.966667 89,65.5 Z m 16,0 V 56 h 6 c 5.33333,0 6,0.222222 6,2 0,1.619048 -0.66667,2 -3.5,2 -2.44444,0 -3.5,0.452381 -3.5,1.5 0,1 1,1.5 3,1.5 2.29898,0 3,0.451825 3,1.933578 0,1.365982 -0.80725,2.026462 -2.75,2.25 -3.97258,0.457095 -3.58986,3.235444 0.5,3.62978 2.44002,0.235262 3.25,0.796017 3.25,2.25 C 117,74.763698 116.2679,75 111,75 h -6 z m 15.07294,1.75 c -0.6608,-4.2625 -1.42787,-8.5375 -1.70459,-9.5 -0.38381,-1.334979 0.0912,-1.75 2.00299,-1.75 2.23327,0 2.57578,0.51714 3.14604,4.75 0.96334,7.150629 1.151,7.246164 1.96434,1 0.66757,-5.126753 0.99942,-5.75 3.06155,-5.75 2.06549,0 2.38978,0.614888 3.03254,5.75 0.53511,4.27505 0.92031,5.236974 1.50167,3.75 0.43007,-1.1 0.81358,-3.6875 0.85223,-5.75 0.0629,-3.356931 0.3437,-3.75 2.6787,-3.75 2.19187,0 2.52567,0.359304 2.09027,2.25 -0.28497,1.2375 -1.08082,5.5125 -1.76856,9.5 -1.20808,7.004487 -1.34659,7.25 -4.09027,7.25 -2.254,0 -2.85681,-0.464168 -2.92208,-2.25 -0.10773,-2.947765 -0.95319,-8.118754 -1.40057,-8.566129 -0.19374,-0.19374 -0.66621,2.160632 -1.04995,5.231938 C 126.81072,74.670506 126.60743,75 124.02198,75 c -2.65707,0 -2.78716,-0.255297 -3.94904,-7.75 z M 145,65.5 V 56 h 4.97695 c 4.18803,0 5.23327,0.391207 6.59401,2.467957 2.33921,3.57009 0.75629,7.719936 -3.39931,8.911746 C 150.42035,68.168766 150,68.734015 150,71.64466 150,74.557023 149.66995,75 147.5,75 145.00877,75 145,74.966667 145,65.5 Z m 7,-3.440983 c 0,-1.067541 -0.45,-2.219098 -1,-2.559017 -0.56716,-0.350523 -1,0.489616 -1,1.940983 C 150,62.848442 150.45,64 151,64 c 0.55,0 1,-0.873442 1,-1.940983 z m 8.65499,11.112242 c -1.78953,-1.977407 -2.3431,-12.537673 -0.78597,-14.993577 0.46112,-0.727274 2.48602,-1.693914 4.49976,-2.148088 2.89943,-0.653926 4.12646,-0.449162 5.89629,0.983965 1.89419,1.53382 2.23493,2.790772 2.23493,8.244393 0,3.983951 -0.52271,7.064486 -1.37244,8.088353 -1.89611,2.284672 -8.34409,2.176896 -10.47257,-0.175046 z M 167,65.416667 c 0,-4.822597 -0.33432,-6.471707 -1.25,-6.165964 -1.19358,0.398529 -1.86836,8.641013 -0.9414,11.499297 C 165.88013,74.05409 167,71.328595 167,65.416667 Z M 174.87023,65.75 c -1.40952,-8.951281 -1.39422,-9.260899 0.47352,-9.587492 C 177.94304,55.707997 178.96336,57.616083 179,63 c 0.0223,3.277753 0.29392,4.092584 1,3 0.53316,-0.825 0.97627,-3.4125 0.98469,-5.75 0.0139,-3.862583 0.2432,-4.25 2.51531,-4.25 1.5,0 2.55,0.6 2.625,1.5 0.0687,0.825 0.2375,1.95 0.375,2.5 0.1375,0.55 0.30625,2.376558 0.375,4.059017 C 187.08204,69.125782 189,66.311543 189,60.940983 189,56.296682 189.15488,56 191.57946,56 c 2.2818,0 2.51542,0.317328 2.02455,2.75 -0.3052,1.5125 -1.06215,5.7875 -1.68212,9.5 -1.08893,6.520822 -1.22557,6.75 -4.02454,6.75 -2.66889,0 -2.90289,-0.295698 -2.96764,-3.75 -0.0386,-2.0625 -0.45702,-4.65 -0.92971,-5.75 -0.77422,-1.801701 -0.8664,-1.739733 -0.92971,0.625 -0.0387,1.44375 -0.35154,4.03125 -0.69529,5.75 -0.51561,2.578037 -1.09961,3.125 -3.33661,3.125 -2.6484,0 -2.74555,-0.215613 -4.16816,-9.25 z M 195,65.5 V 56 h 6 c 5.2679,0 6,0.236302 6,1.936642 0,1.453983 -0.80998,2.014738 -3.25,2.25 -4.02718,0.388292 -4.15457,2.137033 -0.20551,2.821063 4.31305,0.747081 4.50534,3.767356 0.26577,4.174442 -4.46612,0.428839 -4.51214,3.20197 -0.0603,3.631211 2.44002,0.235262 3.25,0.796017 3.25,2.25 C 207,74.763698 206.2679,75 201,75 h -6 z m 14,0 V 56 h 5.52144 c 4.91911,0 5.6457,0.272721 6.66051,2.5 0.84507,1.854727 0.84927,3.136055 0.0163,4.964289 -0.7041,1.545337 -0.76395,2.686068 -0.16051,3.059017 C 221.56697,66.850406 222,68.891476 222,71.059017 222,74.596066 221.74376,75 219.5,75 c -2.19048,0 -2.5,-0.433333 -2.5,-3.5 0,-2.444444 -0.45238,-3.5 -1.5,-3.5 -1.04762,0 -1.5,1.055556 -1.5,3.5 0,3.066667 -0.30952,3.5 -2.5,3.5 -2.49123,0 -2.5,-0.03333 -2.5,-9.5 z m 7.5,-3.5 c 0,-0.733333 -0.5625,-1.520833 -1.25,-1.75 -0.74359,-0.247863 -1.25,0.461111 -1.25,1.75 0,1.288889 0.50641,1.997863 1.25,1.75 0.6875,-0.229167 1.25,-1.016667 1.25,-1.75 z M 229,65.5 V 56 h 4.92857 C 239.47018,56 242,57.746244 242,61.571429 242,64.512945 238.74542,68 236,68 c -1.61905,0 -2,0.666667 -2,3.5 0,3.066667 -0.30952,3.5 -2.5,3.5 -2.49123,0 -2.5,-0.03333 -2.5,-9.5 z m 7.55931,-2.595961 c 0.37254,-0.602779 -0.0509,-1.824208 -0.94099,-2.714286 C 234.12723,58.698654 234,58.784813 234,61.285714 c 0,2.761689 1.33209,3.604007 2.55931,1.618325 z M 241.35608,72.75 c 0.32414,-1.2375 1.3589,-5.5125 2.29947,-9.5 1.68722,-7.152839 1.75348,-7.25 4.94398,-7.25 h 3.23384 l 2.08331,8.873785 C 255.06251,69.754368 256,74.029368 256,74.373785 256,74.718203 254.875,75 253.5,75 c -1.55556,0 -2.5,-0.566667 -2.5,-1.5 0,-0.841058 -0.89238,-1.5 -2.03138,-1.5 -1.11727,0 -2.29041,0.675 -2.60699,1.5 -0.31659,0.825 -1.70495,1.5 -3.08525,1.5 -2.11055,0 -2.41592,-0.357807 -1.9203,-2.25 z m 8.57363,-6 C 249.89106,66.0625 249.47269,64.6 249,63.5 c -0.68679,-1.598241 -0.87355,-1.66489 -0.92971,-0.331787 -0.0387,0.917516 -0.34343,2.380016 -0.67728,3.25 -0.39831,1.037983 -0.0545,1.581787 1,1.581787 0.88385,0 1.57536,-0.5625 1.5367,-1.25 z m 7.88891,-1.252242 -0.31862,-9.502243 5,0.01756 c 2.75,0.0097 5.52682,0.352672 6.17072,0.76226 2.03974,1.2975 2.61297,5.744342 0.92144,7.14818 -1.35276,1.122694 -1.36044,1.451064 -0.0643,2.747226 C 270.33755,67.480403 271,69.685714 271,71.571429 271,74.554884 270.67791,75 268.51905,75 c -1.89374,0 -2.62357,-0.650885 -3.08352,-2.75 -1.1514,-5.254684 -1.86975,-5.742294 -2.20983,-1.5 -0.29747,3.710777 -0.64188,4.25 -2.71458,4.25 -2.3096,0 -2.38251,-0.257284 -2.6925,-9.502242 z m 7.51495,-2.924645 c 0.30115,-0.784788 -0.1007,-1.964888 -0.89301,-2.622445 C 263.24876,58.961566 263,59.207968 263,61.377555 c 0,2.810591 1.43225,3.544373 2.33357,1.195558 z M 276,67.90638 c 0,-6.252615 -0.23712,-7.155626 -2,-7.616631 -1.10692,-0.289465 -2,-1.364016 -2,-2.40638 C 272,56.252289 272.78811,56 277.88337,56 c 5.04236,0 5.95813,0.285892 6.40638,2 0.38794,1.483493 0.0307,2 -1.38337,2 C 281.20066,60 281,60.789438 281,67.5 c 0,7.333333 -0.0556,7.5 -2.5,7.5 -2.43171,0 -2.5,-0.193759 -2.5,-7.09362 z m 14,3.122133 c 0,-2.184317 -1.10024,-6.459317 -2.44497,-9.5 L 285.11006,56 h 2.80031 c 2.29331,0 2.97626,0.588416 3.77213,3.25 l 0.97181,3.25 0.7523,-3.25 c 0.63636,-2.749108 1.20047,-3.25 3.66024,-3.25 h 2.90793 l -2.48739,5.62443 C 296.11933,64.717867 295,68.992867 295,71.12443 295,74.591705 294.73662,75 292.5,75 290.25299,75 290,74.598099 290,71.028513 Z M 112,45.5 c 0,-2.363636 0.3,-2.5 5.5,-2.5 h 5.5 v -8 -8 h -7.5 c -7.33333,0 -7.5,-0.05556 -7.5,-2.5 0,-2.444444 0.16667,-2.5 7.5,-2.5 6.83333,0 7.5,-0.177778 7.5,-2 0,-1.823856 -0.66667,-2 -7.56955,-2 -7.27792,0 -7.55724,-0.08668 -7.25,-2.25 0.26879,-1.89262 0.95489,-2.259604 4.31955,-2.310467 3.32862,-0.05032 4.05363,-0.427968 4.31955,-2.25 C 117.10851,9.2096401 116.70158,9 112.56955,9 108.66667,9 108,8.7082135 108,7 c 0,-1.7037037 0.66667,-2 4.5,-2 4.15907,0 4.5,-0.1935572 4.5,-2.5547912 0,-2.42393211 0.2433,-2.53917946 4.75,-2.24999999 4.05349,0.2600987 4.79686,0.63471576 5.06955,2.55479119 0.27647,1.9466831 0.91681,2.25 4.75,2.25 C 135.33333,5 136,5.3009477 136,7 c 0,1.7037037 -0.66667,2 -4.5,2 -4.00426,0 -4.5,0.2486656 -4.5,2.257206 0,2.061562 0.39004,2.226185 4.5,1.899306 4.27154,-0.339729 4.5,-0.225865 4.5,2.242794 C 136,17.044367 135.44882,18 134.5,18 c -0.83333,0 -1.5,0.888889 -1.5,2 0,1.111111 0.66667,2 1.5,2 0.93333,0 1.5,0.944444 1.5,2.5 0,1.555556 -0.56667,2.5 -1.5,2.5 -1.2381,0 -1.5,1.833333 -1.5,10.5 V 48 H 122.5 112 Z m 35,-10.95031 c 0,-10.146428 -0.32771,-13.646743 -1.33415,-14.25 -1.07101,-0.641968 -0.72586,-2.67337 1.75,-10.29969 L 150.5,0.5 155.25,0.19520881 C 157.8625,0.02757365 160,0.32498118 160,0.85611443 160,1.3872477 159.10581,4.6744037 158.0129,8.1609056 156.92,11.647408 156.02,14.8375 156.0129,15.25 156.0059,15.6625 158.475,16 161.5,16 c 3.025,0 5.48397,-0.3375 5.46438,-0.75 C 166.94479,14.8375 166.27682,11.8 165.48,8.5 163.39546,-0.13309814 163.34192,0 168.89884,0 h 4.89884 l 1.85116,7.75 1.85116,7.75 6.75,0.29569 c 6.20223,0.271694 6.75005,0.474573 6.75062,2.5 5.7e-4,2.026155 -0.40541,2.176178 -5.02322,1.856231 -8.71585,-0.603882 -8.53119,-1.705801 -3.45171,20.598079 0.42604,1.870727 1.18346,2.25 4.49336,2.25 3.57968,0 3.98095,0.251994 3.98095,2.5 0,2.469021 -0.10449,2.5 -8.43261,2.5 -7.16996,0 -8.50904,-0.262036 -8.94302,-1.75 C 173.34365,45.2875 172.13161,39.775 170.93095,34 167.97661,19.79011 168.00628,19.834398 161.688,20.199891 L 156.5,20.5 156.22178,34.25 155.94356,48 H 151.47178 147 Z M 222,45.5 c 0,-2.410256 0.23333,-2.5 6.5,-2.5 H 235 V 27.666667 c 0,-8.433334 -0.18653,-15.520834 -0.4145,-15.75 -0.22798,-0.229167 -2.81548,-0.265215 -5.75,-0.08011 l -5.3355,0.336559 -6,13.500718 c -3.3,7.425396 -6.9,14.473944 -8,15.663441 -2.08047,2.249743 -6.585,2.907736 -7.20349,1.052242 -0.19564,-0.586901 1.90762,-7.387473 4.67389,-15.112384 2.76628,-7.724911 5.03042,-14.434957 5.03142,-14.911214 0.001,-0.476256 -2.81149,-0.865921 -6.25,-0.865921 -5.72202,0 -6.2789,-0.190672 -6.57137,-2.25 C 198.87305,7.085547 199.15064,7 206.48148,7 h 7.62057 l 1.4624,-3.5 c 1.44446,-3.45708954 1.5371,-3.5 7.55596,-3.5 5.41119,0 6.01289,0.19597204 5.37313,1.75 C 226.27895,7.1293555 226.09688,7 235.88337,7 H 245 V 27.5 48 H 233.5 222 Z m 31,0 c 0,-2.481481 0.0667,-2.5 9,-2.5 7.33333,0 9,-0.277778 9,-1.5 0,-1.208333 -1.55556,-1.5 -8,-1.5 -6.44444,0 -8,-0.291667 -8,-1.5 0,-1.208333 1.55556,-1.5 8,-1.5 10.27677,0 10.4831,-1.822294 0.25,-2.207936 L 255.5,34.5 V 28 21.5 L 276.25,21.229712 297,20.959423 v 7.085584 7.085583 l -7.49552,-0.21886 c -4.12253,-0.120373 -7.61003,0.187744 -7.75,0.684705 -0.13996,0.496961 3.23302,1.034994 7.49552,1.195629 5.88004,0.221594 7.75,0.633693 7.75,1.707936 0,1.072705 -1.85892,1.486659 -7.66975,1.707936 -5.02727,0.191439 -7.81224,0.722728 -8.08333,1.542064 -0.31162,0.941815 1.94917,1.25 9.16975,1.25 C 299.97222,43 300,43.0072 300,45.5 V 48 H 276.5 253 Z M 271,30 c 0,-0.55 -1.575,-1 -3.5,-1 -1.925,0 -3.5,0.45 -3.5,1 0,0.55 1.575,1 3.5,1 1.925,0 3.5,-0.45 3.5,-1 z m 17,0 c 0,-0.55 -1.575,-1 -3.5,-1 -1.925,0 -3.5,0.45 -3.5,1 0,0.55 1.575,1 3.5,1 1.925,0 3.5,-0.45 3.5,-1 z m -17,-4 c 0,-0.55 -1.60156,-1 -3.55902,-1 -2.11803,0 -3.30878,0.404882 -2.94098,1 0.33992,0.55 1.94148,1 3.55902,1 C 269.67656,27 271,26.55 271,26 Z m 17,0 c 0,-0.55 -1.60156,-1 -3.55902,-1 -2.11803,0 -3.30878,0.404882 -2.94098,1 0.33992,0.55 1.94148,1 3.55902,1 C 286.67656,27 288,26.55 288,26 Z M 89.447645,45.72416 c -0.269272,-0.701712 -0.367649,-10.714212 -0.218616,-22.25 L 89.5,2.5 97.75,2.2095577 106,1.9191153 V 24.459558 47 h -8.031385 c -5.58937,0 -8.180248,-0.387931 -8.52097,-1.27584 z M 99,34.416667 C 99,29.3 98.638584,26.953805 97.888889,27.203704 97.21346,27.428847 96.799562,30.206319 96.833333,34.287037 96.902159,42.603515 96.810871,42 98,42 c 0.578755,0 1,-3.194444 1,-7.583333 z m 0,-20 C 99,9.3 98.638584,6.9538055 97.888889,7.2037037 97.21346,7.4288468 96.799562,10.206319 96.833333,14.287037 96.902159,22.603515 96.810871,22 98,22 c 0.578755,0 1,-3.194444 1,-7.583333 z M 110.64204,38.25 c -0.271,-0.9625 -0.78708,-3.2125 -1.14684,-5 L 108.84109,30 h 4.46074 c 4.44376,0 4.465,0.01691 5.57946,4.44282 0.61529,2.443551 1.11871,4.693551 1.11871,5 C 120,39.749269 118.00532,40 115.56739,40 c -3.36716,0 -4.55105,-0.420641 -4.92535,-1.75 z M 253,18 c 0,-1.943262 0.66667,-2 23.5,-2 22.83333,0 23.5,0.05674 23.5,2 0,1.943262 -0.66667,2 -23.5,2 C 253.66667,20 253,19.94326 253,18 Z M 255,7 V 0 h 21 21 v 7 7 h -21 -21 z m 33,3 c 0,-0.611383 -4.68634,-1 -12.05902,-1 -7.7847,0 -11.83995,0.3544498 -11.44098,1 0.35375,0.572384 5.51038,1 12.05902,1 C 283.51967,11 288,10.608397 288,10 Z m 0,-5 c 0,-0.6111111 -4.66667,-1 -12,-1 -7.33333,0 -12,0.3888889 -12,1 0,0.6111111 4.66667,1 12,1 7.33333,0 12,-0.3888889 12,-1 z M 181.11521,9.75 c -0.45941,-1.2375 -1.14366,-3.9375 -1.52056,-6 L 178.90937,0 h 4.46245 4.46245 l 1.08287,5.0492211 C 190.42514,12.080817 190.45935,12 185.97525,12 c -3.25966,0 -4.18354,-0.427719 -4.86004,-2.25 z" id="path4237" inkscape:connector-curvature="0"/>
		<g id="g4246" clip-path="url(#clipPath4248)">
			<g inkscape:label="Clip" id="g4244">
				<path style="fill:#090908" d="M 0,75 C 0,74.732492 4.95,65.276362 11,53.986377 17.05,42.696392 22,33.191081 22,32.863461 c 0,-0.32762 -4.95,-0.27231 -11,0.12292 l -11,0.71859 v -6.6093 -6.60929 h 14.406582 14.406582 l 5.347105,-9.75 5.347105,-9.75 10.746313,-0.28384 C 56.164159,0.546441 61,0.706541 61,1.058621 c 0,0.35196 -1.096139,1.50214 -2.435865,2.55597 -2.846209,2.23883 -12.945712,15.8442 -11.825273,15.93022 0.418626,0.0321 5.508918,0.009 11.311759,-0.0511 5.802842,-0.0602 11.765342,0.35235 13.25,0.91682 L 74,21.436821 v 13.93616 13.936163 l -6.395629,5.838591 C 53.257024,68.245479 44.731883,70.757453 34.17963,64.9965 c -2.926204,-1.597547 -5.804183,-3.828378 -6.395509,-4.957402 -1.029607,-1.965835 -0.993314,-1.980273 0.856968,-0.340909 5.485726,4.860393 15.541229,6.19378 21.108911,2.799098 3.600604,-2.19533 4.489136,-3.744493 1.110613,-1.936363 -6.904028,3.694924 -13.049948,3.015592 -18.865496,-2.085277 L 28.5,55.410048 l 4,1.89624 c 6.782435,3.21528 9.175664,3.417097 14.194551,1.197005 5.721126,-2.530726 5.274295,-3.461357 -0.677394,-1.410833 -3.978012,1.370536 -4.81431,1.361147 -8.632184,-0.09691 -2.325089,-0.88796 -4.768057,-2.265883 -5.428819,-3.062052 -1.025844,-1.236067 -0.67676,-1.228377 2.389112,0.05263 1.974773,0.825107 4.522877,1.500199 5.662453,1.500199 C 46.235338,55.486327 65,41.195006 65,36.452001 c 0,-4.19636 -2.567166,-5.0646 -14.486786,-4.89958 -6.189819,0.0857 -11.669601,0.44338 -12.177294,0.79485 -0.507693,0.35148 -6.940989,9.864056 -14.296212,21.139056 -14.454354,22.15743 -14.76983,22.603212 -15.487923,21.885119 -0.425342,-0.425343 1.787117,-4.435258 8.626629,-15.635119 1.091588,-1.7875 1.720779,-3.25 1.398204,-3.25 -0.322576,0 -3.328216,4.275 -6.679202,9.5 -3.350985,5.225 -6.498761,9.5 -6.995058,9.5 -1.270527,0 -1.121978,-1.228963 0.426381,-3.527494 2.22344,-3.300685 10.806307,-19.472506 10.334639,-19.472506 -0.242749,0 -3.691269,5.175 -7.663378,11.5 C 1.413203,74.474835 0,76.420395 0,74.99995 Z" id="path4324" inkscape:connector-curvature="0"/>
				<path style="fill:#090908" d="m 89.666662,74.333329 c -0.366667,-0.366666 -0.666667,-4.641666 -0.666667,-9.5 v -8.833333 h 2.961456 c 2.64604,0 3.077805,0.452654 4.053867,4.25 1.68392,6.551256 1.821169,6.623275 1.90573,1 0.07387,-4.912281 0.239766,-5.25 2.578942,-5.25 2.49123,0 2.5,0.03333 2.5,9.5 v 9.5 h -2.93873 c -2.717475,0 -2.989662,-0.339712 -3.61538,-4.512297 -0.943696,-6.293019 -2.445885,-6.628798 -2.445885,-0.54672 0,4.239047 -0.297148,5.059017 -1.833333,5.059017 -1.008334,0 -2.133334,-0.3 -2.5,-0.666667 z" id="path4322" inkscape:connector-curvature="0"/>
				<path style="fill:#090908" d="m 104.99999,65.499996 v -9.5 h 5.39301 c 3.70418,0 5.56152,0.439112 5.9311,1.402234 0.73925,1.926446 -0.16285,2.597766 -3.49078,2.597766 -1.85185,0 -2.83333,0.519608 -2.83333,1.5 0,1 1,1.5 3,1.5 2.33333,0 3,0.444444 3,2 0,1.566159 -0.66667,2 -3.07332,2 -4.41514,0 -3.67868,3.377396 0.83151,3.813358 2.43192,0.235074 3.24181,0.797183 3.24181,2.25 0,1.70034 -0.7321,1.936642 -6,1.936642 h -6 z" id="path4320" inkscape:connector-curvature="0"/>
				<path style="fill:#090908" d="m 120.04596,66.901776 c -0.65127,-4.454021 -1.42618,-8.729021 -1.72203,-9.5 -0.37236,-0.970337 0.226,-1.40178 1.94407,-1.40178 1.97983,0 2.60844,0.632257 3.10699,3.125 0.34375,1.71875 0.625,4.26875 0.625,5.666667 0,5.286714 1.7696,-0.265235 1.92569,-6.041667 0.0597,-2.210461 0.54219,-2.75 2.45909,-2.75 2.14067,0 2.45511,0.562965 3.07195,5.5 0.37795,3.025 1.0548,5.5 1.50412,5.5 0.44931,0 0.79604,-0.5625 0.7705,-1.25 -0.0255,-0.6875 0.0245,-3.1625 0.11112,-5.5 0.14291,-3.855507 0.39584,-4.25 2.72492,-4.25 1.97013,0 2.45034,0.407105 2.06426,1.75 -0.27672,0.9625 -1.04379,5.2375 -1.70459,9.5 -1.17543,7.582121 -1.26347,7.75 -4.06426,7.75 -2.54271,0 -2.87395,-0.363381 -2.96248,-3.25 -0.0548,-1.7875 -0.43594,-4.375 -0.84693,-5.75 -0.6145,-2.055864 -0.88374,-1.478487 -1.51554,3.25 -0.72568,5.431068 -0.92191,5.75 -3.53803,5.75 -2.70083,0 -2.79919,-0.201489 -3.95385,-8.09822 z" id="path4318" inkscape:connector-curvature="0"/>
				<path style="fill:#090908" d="m 144.99999,65.499996 v -9.5 h 4.97695 c 4.18803,0 5.23327,0.391207 6.59401,2.467957 2.33921,3.57009 0.75629,7.719936 -3.39931,8.911746 -2.7513,0.789063 -3.17165,1.354312 -3.17165,4.264957 0,2.912363 -0.33005,3.35534 -2.5,3.35534 -2.49123,0 -2.5,-0.03333 -2.5,-9.5 z" id="path4316" inkscape:connector-curvature="0"/>
				<path style="fill:#090908" d="m 152.33356,62.573109 c 0.30115,-0.784788 -0.1007,-1.964888 -0.89301,-2.622445 -1.1918,-0.989102 -1.44056,-0.7427 -1.44056,1.426887 0,2.810591 1.43225,3.544373 2.33357,1.195558 z" id="path4314" inkscape:connector-curvature="0"/>
				<path style="fill:#090908" d="m 160.40337,72.492875 c -2.04554,-3.121883 -1.57374,-14.139546 0.66618,-15.55703 2.39936,-1.51838 8.56745,-1.07816 10.05801,0.717846 0.83748,1.009101 1.37244,4.06751 1.37244,7.846305 0,7.566679 -1.34303,9.5 -6.5994,9.5 -3.01091,0 -4.21403,-0.548709 -5.49723,-2.507121 z" id="path4312" inkscape:connector-curvature="0"/>
				<path style="fill:#090908" d="m 167,65.416663 c 0,-4.821811 -0.33447,-6.472051 -1.25001,-6.167438 -0.73757,0.245401 -1.32558,2.43178 -1.43436,5.333334 -0.21096,5.626871 0.18807,7.417437 1.65298,7.417437 0.60407,0 1.03139,-2.727558 1.03139,-6.583333 z" id="path4310" inkscape:connector-curvature="0"/>
				<path style="fill:#090908" d="m 174.92647,65.499993 -1.46274,-9.5 h 2.1515 c 2.41492,0 3.30939,2.209275 3.4414,8.5 0.0662,3.156445 0.26518,3.578222 0.94337,2 0.47269,-1.1 0.89106,-3.9125 0.92971,-6.25 0.0631,-3.813782 0.3195,-4.25 2.49833,-4.25 2.19313,0 2.49453,0.532144 3.11523,5.5 0.37795,3.025 1.08533,5.5 1.57195,5.5 0.48663,3e-6 0.88478,-2.474997 0.88478,-5.499997 0,-5.211093 0.13232,-5.5 2.51905,-5.5 2.09676,0 2.43358,0.37719 2.00918,2.25 -0.56775,2.505345 -2.50886,14.826573 -2.52068,16 -0.004,0.4125 -1.35755,0.75 -3.00755,0.75 -2.86034,0 -3.00071,-0.197847 -3.01531,-4.25 -0.0248,-6.870626 -1.62769,-7.762925 -2.42868,-1.351968 -0.6579,5.265637 -0.86403,5.601968 -3.43336,5.601968 -2.68345,0 -2.76019,-0.173736 -4.19618,-9.5 z" id="path4308" inkscape:connector-curvature="0"/>
				<path style="fill:#090908" d="m 195,65.499993 v -9.5 h 6 c 5.2679,0 6,0.236302 6,1.936642 0,1.442781 -0.80914,2.01655 -3.17299,2.25 -4.25119,0.419842 -5.02568,2.813361 -0.91034,2.813361 2.38136,0 3.08333,0.440212 3.08333,1.933578 0,1.365982 -0.80725,2.026462 -2.75,2.25 -3.97258,0.457095 -3.58986,3.235444 0.5,3.62978 2.44002,0.235262 3.25,0.796017 3.25,2.25 0,1.70034 -0.7321,1.936642 -6,1.936642 h -6 v -9.5 z" id="path4306" inkscape:connector-curvature="0"/>
				<path style="fill:#090908" d="m 209,65.499993 v -9.5 h 4.92857 c 3.14719,0 5.49655,0.567978 6.5,1.571429 1.82745,1.827448 2.0411,4.558903 0.47879,6.121212 -0.79019,0.790187 -0.79019,1.657779 0,3.134258 0.60095,1.122893 1.09264,3.421205 1.09264,5.107363 0,2.583228 -0.38397,3.065741 -2.43963,3.065741 -2.08701,0 -2.4845,-0.530865 -2.75,-3.6727 C 216.36456,66.051907 214,65.706412 214,70.916663 c 0,3.688889 -0.2415,4.083333 -2.5,4.083333 -2.49123,0 -2.5,-0.03333 -2.5,-9.5 z" id="path4304" inkscape:connector-curvature="0"/>
				<path style="fill:#090908" d="m 216.79909,61.792954 c 0.1645,-0.847719 -0.398,-1.808806 -1.25,-2.135749 C 214.39969,59.216142 214,59.721215 214,61.614714 c 0,2.749899 2.27198,2.894576 2.79909,0.178243 z" id="path4302" inkscape:connector-curvature="0"/>
				<path style="fill:#090908" d="m 229,65.499996 v -9.5 h 4.92857 c 5.3412,0 8.07143,1.737691 8.07143,5.13717 0,3.337278 -1.82744,5.666018 -4.99168,6.361003 C 234.379,68.075665 234,68.589836 234,71.579451 c 0,2.981915 -0.32059,3.420545 -2.5,3.420545 -2.49123,0 -2.5,-0.03333 -2.5,-9.5 z" id="path4300" inkscape:connector-curvature="0"/>
				<path style="fill:#090908" d="m 236.55931,62.904035 c 0.37254,-0.602779 -0.0509,-1.824208 -0.94099,-2.714286 C 234.12723,58.69865 234,58.784809 234,61.28571 c 0,2.761689 1.33209,3.604007 2.55931,1.618325 z" id="path4298" inkscape:connector-curvature="0"/>
				<path style="fill:#090908" d="m 241.26018,73.749996 c 0.26078,-0.6875 1.27402,-4.9625 2.25164,-9.5 l 1.77749,-8.25 h 3.27203 3.27203 l 2.08331,8.873785 c 1.14583,4.880583 2.08332,9.155583 2.08332,9.5 0,0.344418 -1.125,0.626215 -2.5,0.626215 -1.55556,0 -2.5,-0.566667 -2.5,-1.5 0,-0.841058 -0.89238,-1.5 -2.03138,-1.5 -1.11727,0 -2.29041,0.675 -2.60699,1.5 -0.31659,0.825 -1.70061,1.5 -3.07561,1.5 -1.58621,0 -2.32669,-0.456892 -2.02584,-1.25 z" id="path4296" inkscape:connector-curvature="0"/>
				<path style="fill:#090908" d="m 249.90032,66.749996 c -0.0548,-0.6875 -0.45997,-2.375 -0.90032,-3.75 -0.73624,-2.2989 -0.80866,-2.325589 -0.90032,-0.331787 -0.0548,1.192516 -0.37282,2.880016 -0.70667,3.75 -0.39831,1.037983 -0.0545,1.581787 1,1.581787 0.88385,0 1.56213,-0.5625 1.50731,-1.25 z" id="path4294" inkscape:connector-curvature="0"/>
				<path style="fill:#090908" d="m 258,65.499996 v -9.5 l 4.75,0.01531 c 2.6125,0.0084 5.25185,0.345922 5.86522,0.75 1.93321,1.273565 2.45633,4.754579 1.01146,6.730559 -1.1805,1.614432 -1.17329,2.100372 0.0493,3.322976 0.80402,0.804016 1.2987,2.802271 1.12801,4.556584 -0.23,2.363967 -0.85171,3.202355 -2.554,3.444119 -2.24973,0.319513 -2.36412,0.09355 -2.64806,-5.231234 -0.0561,-1.051423 -0.66443,-2.101423 -1.35193,-2.33333 -0.86476,-0.291701 -1.25,0.836802 -1.25,3.661683 0,3.688889 -0.2415,4.083333 -2.5,4.083333 -2.49123,0 -2.5,-0.03333 -2.5,-9.5 z" id="path4292" inkscape:connector-curvature="0"/>
				<path style="fill:#090908" d="m 265.33357,62.573109 c 0.30115,-0.784788 -0.1007,-1.964888 -0.89301,-2.622445 C 263.24876,58.961562 263,59.207964 263,61.377551 c 0,2.810591 1.43225,3.544373 2.33357,1.195558 z" id="path4290" inkscape:connector-curvature="0"/>
				<path style="fill:#090908" d="m 276,67.906376 c 0,-6.252615 -0.23712,-7.155626 -2,-7.616631 -1.10692,-0.289465 -2,-1.364016 -2,-2.40638 0,-1.63108 0.78811,-1.883369 5.88337,-1.883369 5.04236,0 5.95813,0.285892 6.40638,2 0.38794,1.483493 0.0307,2 -1.38337,2 -1.70572,0 -1.90638,0.789438 -1.90638,7.5 0,7.333333 -0.0556,7.5 -2.5,7.5 -2.43171,0 -2.5,-0.193759 -2.5,-7.09362 z" id="path4288" inkscape:connector-curvature="0"/>
				<path style="fill:#090908" d="m 290,71.082901 c 0,-2.154402 -0.9,-6.016709 -2,-8.582905 -2.54209,-5.930453 -2.51095,-6.5 0.35534,-6.5 1.77982,0 2.60646,0.794126 3.38308,3.25 l 1.02774,3.25 0.74192,-3.25 c 0.6216,-2.722941 1.19924,-3.25 3.56189,-3.25 h 2.81997 l -2.44497,5.528513 c -1.34473,3.040683 -2.44497,7.315683 -2.44497,9.5 0,3.569586 -0.25299,3.971487 -2.5,3.971487 -2.24118,0 -2.5,-0.405527 -2.5,-3.917095 z" id="path4286" inkscape:connector-curvature="0"/>
				<path style="fill:#090908" d="m 111.99999,45.499996 c 0,-2.363636 0.3,-2.5 5.5,-2.5 h 5.5 V 35 27 h -7.5 c -7.33333,0 -7.5,-0.0556 -7.5,-2.5 0,-2.44445 0.16667,-2.5 7.5,-2.5 6.83333,0 7.5,-0.17778 7.5,-2 0,-1.82223 -0.66667,-2 -7.5,-2 -6.75933,0 -7.5,-0.19184 -7.5,-1.94251 0,-1.57039 0.81413,-2.0014 4.25,-2.25 3.53302,-0.25562 4.30391,-0.68707 4.56955,-2.55749 0.29139,-2.0517 -0.0832,-2.25 -4.25,-2.25 -3.90288,0 -4.56955,-0.29179 -4.56955,-2 0,-1.70371 0.66667,-2 4.5,-2 4.15907,0 4.5,-0.19356 4.5,-2.5548 0,-2.42393 0.2433,-2.53917 4.75,-2.25 4.05349,0.2601 4.79686,0.63472 5.06955,2.5548 0.27647,1.94668 0.91681,2.25 4.75,2.25 3.76378,0 4.43045,0.30094 4.43045,2 0,1.7037 -0.66667,2 -4.5,2 -4.13333,0 -4.5,0.2037 -4.5,2.5 0,2.29629 0.36667,2.5 4.5,2.5 3.83333,0 4.5,0.29629 4.5,2 0,1.11111 -0.66667,2 -1.5,2 -0.83333,0 -1.5,0.88889 -1.5,2 0,1.11111 0.66667,2 1.5,2 0.93333,0 1.5,0.94444 1.5,2.5 0,1.55555 -0.56667,2.5 -1.5,2.5 -1.2381,0 -1.5,1.83333 -1.5,10.5 v 10.499996 h -10.5 -10.5 z" id="path4284" inkscape:connector-curvature="0"/>
				<path style="fill:#090908" d="m 146.99999,34.54969 c 0,-10.14969 -0.32754,-13.64655 -1.33476,-14.25 -1.07171,-0.6421 -0.72603,-2.6719 1.75406,-10.29969 l 3.08882,-9.5 4.74594,-0.3048 c 2.61027,-0.16763 4.7425,0.0574 4.7383,0.5 -0.004,0.44264 -0.90076,3.7298 -1.99236,7.3048 -1.0916,3.575 -1.98816,6.8375 -1.99236,7.25 -0.004,0.4125 2.46736,0.75 5.49236,0.75 3.025,0 5.49298,-0.3375 5.48439,-0.75 -0.009,-0.4125 -0.66756,-3.45 -1.46439,-6.75 C 163.42447,-0.17857 163.35285,0 168.9291,0 h 4.9291 l 1.15452,5.75 C 177.27217,17.00302 176.3821,16 184.10841,16 190.33333,16 191,16.19347 191,18 c 0,1.77143 -0.66667,2 -5.83333,2 -3.20834,0 -6.08334,0.25 -6.38891,0.55557 -0.45958,0.45958 1.31636,10.08957 3.7242,20.194426 0.44482,1.866754 1.21423,2.25 4.51709,2.25 3.57968,0 3.98095,0.251994 3.98095,2.5 0,2.470148 -0.10127,2.5 -8.48095,2.5 -7.97653,0 -8.51143,-0.133823 -8.99348,-2.25 C 173.24368,44.512496 172.10717,39.225 171,34 c -1.10717,-5.225 -2.24921,-10.53454 -2.53786,-11.79897 -0.48297,-2.11562 -0.9809,-2.27513 -6.24349,-2 l -5.71866,0.29897 -0.27822,13.75 -0.27822,13.749996 h -4.47178 -4.47178 z" id="path4282" inkscape:connector-curvature="0"/>
				<path style="fill:#090908" d="m 222,45.499996 c 0,-2.410256 0.23333,-2.5 6.5,-2.5 H 235 V 26.95009 10.90019 l -5.60483,0.2999 -5.60483,0.29991 -6.14517,13.53307 C 212.02613,37.40747 207,45.954262 207,43.134855 c 0,-1.317478 -2.1754,-1.08803 -3.19621,0.337116 -0.40545,0.566061 -0.94257,0.329936 -1.28615,-0.565409 -0.32447,-0.845561 1.67632,-7.734032 4.44621,-15.307712 C 209.73373,20.02518 212,13.19211 212,12.41426 212,11.34029 210.43599,11 205.5,11 199.66667,11 199,10.79487 199,9 c 0,-1.82343 0.66667,-2 7.55103,-2 h 7.55102 l 1.4624,-3.5 c 1.44041,-3.44739 1.55238,-3.5 7.44897,-3.5 6.37488,0 6.82277,0.36115 4.52189,3.64613 -0.80559,1.15013 -1.18059,2.37526 -0.83334,2.7225 C 227.04922,6.71588 231.30833,7 236.16667,7 H 245 V 27.5 47.999996 H 233.5 222 Z" id="path4280" inkscape:connector-curvature="0"/>
				<path style="fill:#090908" d="m 253,45.499996 c 0,-2.481481 0.0667,-2.5 9,-2.5 7.33333,0 9,-0.277778 9,-1.5 0,-1.208333 -1.55556,-1.5 -8,-1.5 -6.44444,0 -8,-0.291667 -8,-1.499996 0,-1.20834 1.55556,-1.5 8,-1.5 6.44444,0 8,-0.29167 8,-1.5 0,-1.20834 -1.55556,-1.5 -8,-1.5 h -8 v -6 -6 h 21 21 v 5.95793 5.95794 l -7.66975,0.29206 c -5.02727,0.19144 -7.81224,0.72273 -8.08333,1.54207 -0.30804,0.93101 1.64917,1.25 7.66975,1.25 6.41486,0 8.08333,0.30093 8.08333,1.45793 0,1.125137 -1.75076,1.524607 -7.66975,1.750002 -5.02727,0.191439 -7.81224,0.722728 -8.08333,1.542064 -0.31162,0.941815 1.94917,1.25 9.16975,1.25 9.55555,0 9.58333,0.0072 9.58333,2.5 v 2.5 H 276.5 253 Z" id="path4278" inkscape:connector-curvature="0"/>
				<path style="fill:#090908" d="m 271,30 c 0,-0.55 -1.575,-1 -3.5,-1 -1.925,0 -3.5,0.45 -3.5,1 0,0.55 1.575,1 3.5,1 1.925,0 3.5,-0.45 3.5,-1 z" id="path4276" inkscape:connector-curvature="0"/>
				<path style="fill:#090908" d="m 288,30 c 0,-0.55 -1.575,-1 -3.5,-1 -1.925,0 -3.5,0.45 -3.5,1 0,0.55 1.575,1 3.5,1 1.925,0 3.5,-0.45 3.5,-1 z" id="path4274" inkscape:connector-curvature="0"/>
				<path style="fill:#090908" d="m 271,26 c 0,-0.55 -1.60156,-1 -3.55902,-1 -2.11803,0 -3.30878,0.40488 -2.94098,1 0.33992,0.55 1.94148,1 3.55902,1 C 269.67656,27 271,26.55 271,26 Z" id="path4272" inkscape:connector-curvature="0"/>
				<path style="fill:#090908" d="m 288,26 c 0,-0.55 -1.575,-1 -3.5,-1 -1.925,0 -3.5,0.45 -3.5,1 0,0.55 1.575,1 3.5,1 1.925,0 3.5,-0.45 3.5,-1 z" id="path4270" inkscape:connector-curvature="0"/>
				<path style="fill:#090908" d="m 89.230493,24.25 0.269502,-21.75 8.25,-0.29045 8.249995,-0.29044 V 23.95955 45.999996 H 97.480493 88.96099 Z" id="path4268" inkscape:connector-curvature="0"/>
				<path style="fill:#090908" d="m 98.999995,34.41666 c 0,-5.61991 -0.323641,-7.47657 -1.25,-7.17099 -0.758657,0.25026 -1.369503,2.69572 -1.554022,6.22136 -0.327516,6.257909 0.145104,8.532966 1.772637,8.532966 0.617842,0 1.031385,-3.040606 1.031385,-7.583336 z" id="path4266" inkscape:connector-curvature="0"/>
				<path style="fill:#090908" d="m 98.999995,14.41666 c 0,-5.62044 -0.323554,-7.47634 -1.25,-7.17001 -0.806369,0.26664 -1.354274,2.958 -1.54381,7.58334 -0.24275,5.92398 -0.02552,7.17001 1.25,7.17001 1.256027,0 1.54381,-1.41362 1.54381,-7.58334 z" id="path4264" inkscape:connector-curvature="0"/>
				<path style="fill:#090908" d="m 110.1187,35.55718 c -0.61529,-2.44355 -1.11871,-4.69355 -1.11871,-5 0,-0.30645 1.97159,-0.55718 4.38129,-0.55718 4.34974,0 4.38933,0.032 5.5,4.44282 0.61529,2.44355 1.11871,4.69355 1.11871,4.999996 0,0.306449 -1.97158,0.55718 -4.38129,0.55718 -4.34974,0 -4.38933,-0.03198 -5.5,-4.442816 z" id="path4262" inkscape:connector-curvature="0"/>
				<path style="fill:#090908" d="m 253,18 c 0,-1.94327 0.66667,-2 23.5,-2 22.83333,0 23.5,0.0567 23.5,2 0,1.94326 -0.66667,2 -23.5,2 C 253.66667,20 253,19.9433 253,18 Z" id="path4260" inkscape:connector-curvature="0"/>
				<path style="fill:#090908" d="M 255,7 V 0 h 21 21 v 7 7 h -21 -21 z" id="path4258" inkscape:connector-curvature="0"/>
				<path style="fill:#090908" d="M 288,9.5 C 288,8.25407 286.06211,8 276.55902,8 266.10998,8 262.96001,8.62667 264.69385,10.36052 265.04557,10.71223 270.43333,11 276.66667,11 286.07407,11 288,10.74509 288,9.5 Z" id="path4256" inkscape:connector-curvature="0"/>
				<path style="fill:#090908" d="m 288,5 c 0,-0.61111 -4.66667,-1 -12,-1 -7.33333,0 -12,0.38889 -12,1 0,0.61111 4.66667,1 12,1 7.33333,0 12,-0.38889 12,-1 z" id="path4254" inkscape:connector-curvature="0"/>
				<path style="fill:#090908" d="m 180.67333,8.11666 c -0.31716,-1.58584 -0.8722,-4.06084 -1.23341,-5.5 C 178.80406,0.08316 178.92702,0 183.30873,0 h 4.52554 l 1.08287,5.04922 C 189.51271,7.82629 190,10.30129 190,10.54922 190,10.79715 188.03125,11 185.625,11 c -4.02177,0 -4.42156,-0.2328 -4.95167,-2.88334 z" id="path4235" inkscape:connector-curvature="0"/>
			</g>
		</g>
	</g>
</svg>
