<?xml version="1.0" encoding="UTF-8" standalone="no"?>
<!-- Created with Inkscape (http://www.inkscape.org/) -->

<svg
   xmlns:dc="http://purl.org/dc/elements/1.1/"
   xmlns:cc="http://creativecommons.org/ns#"
   xmlns:rdf="http://www.w3.org/1999/02/22-rdf-syntax-ns#"
   xmlns:svg="http://www.w3.org/2000/svg"
   xmlns="http://www.w3.org/2000/svg"
   xmlns:sodipodi="http://sodipodi.sourceforge.net/DTD/sodipodi-0.dtd"
   xmlns:inkscape="http://www.inkscape.org/namespaces/inkscape"
   width="10cm"
   height="10cm"
   viewBox="0 0 100 99.999997"
   version="1.1"
   id="svg8"
   inkscape:version="0.92pre1 unknown"
   sodipodi:docname="l10n-tw-logo-taiwan.svg"
   inkscape:export-filename="/home/buo-ren/工作空間/社群/台灣在地化社群/l10n-tw 的代表 logo/l10n-tw-logo-taiwan.svg.png"
   inkscape:export-xdpi="90.678001"
   inkscape:export-ydpi="90.678001">
  <defs
     id="defs2" />
  <sodipodi:namedview
     id="base"
     pagecolor="#ffffff"
     bordercolor="#666666"
     borderopacity="1.0"
     inkscape:pageopacity="0"
     inkscape:pageshadow="2"
     inkscape:zoom="2.0000001"
     inkscape:cx="217.88627"
     inkscape:cy="242.15901"
     inkscape:document-units="mm"
     inkscape:current-layer="group_taiwan_and_small_islands"
     showgrid="false"
     units="cm"
     inkscape:pagecheckerboard="true"
     inkscape:window-width="1301"
     inkscape:window-height="744"
     inkscape:window-x="65"
     inkscape:window-y="24"
     inkscape:window-maximized="1"
     showguides="false" />
  <metadata
     id="metadata5">
    <rdf:RDF>
      <cc:Work
         rdf:about="">
        <dc:format>image/svg+xml</dc:format>
        <dc:type
           rdf:resource="http://purl.org/dc/dcmitype/StillImage" />
        <dc:title />
        <cc:license
           rdf:resource="http://creativecommons.org/licenses/by-sa/4.0/" />
      </cc:Work>
      <cc:License
         rdf:about="http://creativecommons.org/licenses/by-sa/4.0/">
        <cc:permits
           rdf:resource="http://creativecommons.org/ns#Reproduction" />
        <cc:permits
           rdf:resource="http://creativecommons.org/ns#Distribution" />
        <cc:requires
           rdf:resource="http://creativecommons.org/ns#Notice" />
        <cc:requires
           rdf:resource="http://creativecommons.org/ns#Attribution" />
        <cc:permits
           rdf:resource="http://creativecommons.org/ns#DerivativeWorks" />
        <cc:requires
           rdf:resource="http://creativecommons.org/ns#ShareAlike" />
      </cc:License>
    </rdf:RDF>
  </metadata>
  <g
     inkscape:label="主圖層"
     inkscape:groupmode="layer"
     id="layer1"
     transform="translate(0,-197.00002)"
     style="display:inline">
    <flowRoot
       xml:space="preserve"
       id="flowRoot10"
       style="font-style:normal;font-weight:normal;font-size:40px;line-height:200px;font-family:sans-serif;letter-spacing:0px;word-spacing:0px;fill:#000000;fill-opacity:1;stroke:none;stroke-width:1px;stroke-linecap:butt;stroke-linejoin:miter;stroke-opacity:1"
       transform="matrix(0.26458333,0,0,0.26458333,0,197.00002)"><flowRegion
         id="flowRegion12"><rect
           id="rect14"
           width="205"
           height="99"
           x="87"
           y="61.952759" /></flowRegion><flowPara
         id="flowPara16">台灣台灣 llafkdjslfjdsfjdsl</flowPara><flowPara
         id="flowPara18" /><flowPara
         id="flowPara20" /><flowPara
         id="flowPara22" /><flowPara
         id="flowPara24" /><flowPara
         id="flowPara26" /></flowRoot>    <a
       id="official-site-url"
       target="http://l10n.tw">
      <title
         id="title4283">官方網站網址</title>
      <text
         id="text38"
         y="280.69241"
         x="31.604183"
         style="font-style:normal;font-variant:normal;font-weight:normal;font-stretch:normal;font-size:10.58333302px;line-height:20000%;font-family:'思源黑體 TW';-inkscape-font-specification:'思源黑體 TW, Normal';font-variant-ligatures:normal;font-variant-caps:normal;font-variant-numeric:normal;font-feature-settings:normal;text-align:start;letter-spacing:0px;word-spacing:0px;writing-mode:lr-tb;text-anchor:start;fill:#000000;fill-opacity:1;stroke:none;stroke-width:0.26458332px;stroke-linecap:butt;stroke-linejoin:miter;stroke-opacity:1;image-rendering:auto"
         xml:space="preserve"
         sodipodi:linespacing="20000%"><tspan
           sodipodi:role="line"
           id="tspan4274"
           x="31.604183"
           y="280.69241">l10n.tw</tspan></text>
    </a>
    <g
       id="group_taiwan_and_small_islands"
       transform="matrix(1.23845,0,0,1.23845,-10.089594,-54.928461)"
       style="fill:#18a303;fill-opacity:1;stroke:none;stroke-opacity:1">
      <title
         id="title4285">台灣本島跟離島輪廓</title>
      <g
         transform="matrix(0.04372861,0,0,0.04372861,19.125886,200.56885)"
         id="group_taiwan_mainland_and_near_islands">
        <g
           id="group_taiwan_minor_islands">
          <g
             style="fill:#18a303;fill-opacity:1;stroke:#18a303;stroke-opacity:1"
             id="outline_peng_hu">
            <path
               style="fill:#18a303;fill-opacity:1;stroke:#18a303;stroke-opacity:1"
               inkscape:connector-curvature="0"
               id="svg_92"
               d="m 369.06589,720.12299 v 1.13593 z" />
            <path
               style="fill:#18a303;fill-opacity:1;stroke:#18a303;stroke-opacity:1"
               inkscape:connector-curvature="0"
               id="svg_91"
               d="m 383.13184,715.01233 0.5632,-1.98737 1.54706,-0.5675 -0.70419,1.13599 -0.42142,1.84497 z" />
            <path
               style="fill:#18a303;fill-opacity:1;stroke:#18a303;stroke-opacity:1"
               inkscape:connector-curvature="0"
               id="svg_90"
               d="m 390.02429,709.47632 1.82751,-0.28369 -0.42145,1.41962 -1.40607,-1.13593 v 0 z" />
            <path
               style="fill:#18a303;fill-opacity:1;stroke:#18a303;stroke-opacity:1"
               inkscape:connector-curvature="0"
               id="svg_89"
               d="m 356.54688,747.37842 -0.14178,1.98737 1.68964,-0.71069 -1.54785,-1.27667 v 0 z" />
            <path
               style="fill:#18a303;fill-opacity:1;stroke:#18a303;stroke-opacity:1"
               inkscape:connector-curvature="0"
               id="svg_88"
               d="m 359.50076,752.34668 -3.37534,1.84509 -1.26587,-0.56836 0.28125,1.8443 4.2182,-0.28229 3.23508,-1.9873 -0.28128,-0.99371 -1.96915,-0.28381 -0.8429,0.42609 v 0 z" />
            <path
               style="fill:#18a303;fill-opacity:1;stroke:#18a303;stroke-opacity:1"
               inkscape:connector-curvature="0"
               id="svg_87"
               d="m 354.01602,716.29065 -0.4924,0.92206 -0.14096,0.64001 0.63336,0.71063 -1.19656,1.13513 0.28122,0.85223 0.84277,0.42529 0.63412,0.56842 0.28049,0.63818 -0.70349,0.35547 -0.5632,1.70422 0.35059,0.92151 -0.91379,0.28369 h -1.05548 l -0.84286,0.56842 0.28046,0.77979 1.12561,0.21387 1.40607,1.84503 v 1.06439 l -0.42145,0.85144 -0.77271,0.56836 -0.5625,0.70996 -0.77353,0.56744 -0.77274,0.21472 -1.40604,-1.27753 -0.98465,0.35461 -0.70499,0.56836 -0.49228,0.77985 -1.19574,1.06531 -0.49237,0.70984 0.70349,0.42609 h 1.05548 l 0.49237,-0.63916 h 3.16574 l 0.56238,-0.49677 0.70428,-0.35468 2.0401,0.35468 0.91382,0.42523 h 1.05548 l 0.9137,-0.42523 -0.35049,-0.92303 -0.5632,-0.70984 -0.28128,-0.78064 -0.07,-0.99371 1.19574,-1.13605 -0.91379,-2.27026 2.88306,-2.62653 -0.27966,-0.71149 -0.77353,-0.56744 -0.14105,-0.92297 0.49237,-1.70355 -0.42221,-0.92212 -0.49231,-0.6391 -0.21109,-0.85144 0.28033,-0.77997 0.77365,-0.49677 h 2.10944 l 1.82898,-0.49683 0.77203,-0.49683 0.14178,-1.06604 -0.56323,-0.49695 -0.84445,0.77899 -0.84436,0.21295 -0.98465,-0.49683 -1.68811,-1.9151 0.21112,-0.92285 -0.28043,-0.77972 -0.8429,0.0707 -0.63403,0.56775 -1.75735,3.26477 -0.70416,0.78003 v 0 z" />
            <path
               style="fill:#18a303;fill-opacity:1;stroke:#18a303;stroke-opacity:1"
               inkscape:connector-curvature="0"
               id="svg_86"
               d="m 365.69055,707.98584 -0.77274,0.77905 0.0709,0.92285 2.38907,1.63452 0.4924,0.85126 0.49225,-0.49677 0.70349,-1.63281 0.70419,-0.49683 2.18109,0.0715 0.42224,0.92212 v 1.06525 l 0.56241,0.63831 0.35138,0.78064 1.75732,1.84497 0.35132,0.99377 0.70337,0.14227 0.63416,-0.78064 0.14099,-1.06445 1.75732,-0.99359 1.05551,-0.14233 -0.0709,-0.92212 -0.98465,-0.92291 -0.42148,-0.63916 0.63327,-1.13593 -1.12561,-0.0716 -1.33594,-2.48413 -0.5625,-0.14233 -0.634,0.42609 -1.68872,-0.49683 -0.21112,-0.85223 -1.05557,-0.14148 -0.98453,0.42529 -0.42148,0.85138 -1.05551,0.21387 -1.82751,-0.21387 -0.84436,-0.42523 -0.21112,-0.49695 -1.19495,1.98901 v 0 z" />
            <path
               style="fill:#18a303;fill-opacity:1;stroke:#18a303;stroke-opacity:1"
               inkscape:connector-curvature="0"
               id="svg_85"
               d="m 375.32568,717.07117 -1.1264,1.49054 1.40607,1.34821 h 1.05557 l 0.77274,-0.49677 0.0708,-0.99371 1.33606,-1.63367 -0.63333,-0.42523 h -1.05551 l -0.98465,0.21381 -0.84134,0.49683 v 0 z" />
            <path
               style="fill:#18a303;fill-opacity:1;stroke:#18a303;stroke-opacity:1"
               inkscape:connector-curvature="0"
               id="svg_84"
               d="m 377.92752,720.19366 -0.9137,0.42609 -0.28046,0.7807 0.28046,0.85065 0.84354,0.42529 h 1.05478 l 0.98465,-0.21301 0.28125,-0.92218 -0.49237,-0.71069 -0.9137,-0.49689 -0.84445,-0.13995 v 0 z" />
            <path
               style="fill:#18a303;fill-opacity:1;stroke:#18a303;stroke-opacity:1"
               inkscape:connector-curvature="0"
               id="svg_83"
               d="m 372.37189,727.22101 -2.32147,1.98737 -0.9137,0.28369 h -1.05545 l 0.49225,0.92224 v 1.06519 l -0.21112,0.99377 -1.40604,1.20667 -0.14182,1.06525 0.77432,0.42529 1.89914,-0.85059 0.77283,-0.56842 1.12643,0.0716 0.70337,0.49683 0.63336,0.70984 -2.11026,2.27112 -1.05557,0.14233 -2.10947,-0.35693 1.19577,1.349 1.61786,0.7099 1.26511,-0.14233 0.91449,-0.56757 3.16501,0.0708 0.63406,0.85138 0.35059,0.92297 -1.05478,1.70349 -0.14096,0.56757 0.91449,0.63995 -0.0708,0.77985 -0.84366,0.85138 -0.91452,-0.0708 -0.63254,-0.56836 -0.84445,-0.42529 -1.05469,0.14227 -1.26587,2.6972 -1.19577,1.27753 0.49237,0.85144 2.03934,0.21301 1.1257,-0.1424 1.40677,-0.49677 1.19656,-0.0708 1.26508,1.41901 0.9137,-0.21387 0.14096,-0.92291 0.84366,-0.77911 0.0709,-0.99359 0.35132,-0.99365 -0.84366,-0.49689 -0.14096,-0.78052 0.70337,-0.77991 0.49234,-0.92212 3.51715,-2.76801 0.9137,-0.14221 1.75815,-2.20129 0.28046,-0.85052 0.77271,-0.64001 4.85306,-0.14215 1.47693,-0.71002 0.6333,0.49695 0.21194,1.06445 0.49225,0.92279 0.84283,0.56769 0.98465,-0.21393 0.77353,-0.42603 h 1.12561 l 0.42145,-0.6391 -2.46155,-2.62567 -0.63257,-2.34271 0.27966,-0.85156 v -1.06433 l -0.42142,-0.92291 -1.89685,-2.05652 -0.49225,-1.63269 -0.5632,0.63898 -0.28049,1.98743 -0.98459,-0.14227 -0.49231,-0.99371 -0.63333,-0.7099 0.28046,-0.63989 0.56241,-0.42529 -1.33514,-1.27655 -0.91379,-0.35547 -0.63406,0.63989 -1.33521,2.48419 -0.7735,-0.14307 -0.7034,0.21301 -1.19736,1.20679 -0.21112,0.85138 -0.56241,0.14221 -0.0708,-3.19403 0.77271,-1.70514 -1.19574,0.14307 -0.63416,0.42609 -4.07944,0.70984 -0.63333,0.49695 0.07,0.99371 0.56329,0.78058 v 1.06433 l -0.42221,0.71063 -0.98462,0.2832 -0.63336,0.77972 v 2.20123 l -0.56241,0.6391 -1.05478,-0.49677 -0.7735,-0.70996 0.14096,-1.41974 -1.12561,-0.14307 -0.14099,-0.99371 0.56241,-0.92126 0.071,-0.64001 -0.69867,-0.84979 v 0 z" />
            <path
               style="fill:#18a303;fill-opacity:1;stroke:#18a303;stroke-opacity:1"
               inkscape:connector-curvature="0"
               id="svg_82"
               d="m 364.28369,737.37012 -0.42145,1.06525 -0.77271,0.35437 -0.28125,0.92224 0.0709,2.05896 1.19656,0.56744 0.35129,0.56848 0.70337,0.63837 0.28128,-0.70996 -0.5632,-0.70996 0.9137,-0.85132 -0.56241,-0.6391 -0.21112,-2.27112 -0.70499,-0.56763" />
            <path
               style="fill:#18a303;fill-opacity:1;stroke:#18a303;stroke-opacity:1"
               inkscape:connector-curvature="0"
               id="svg_81"
               d="m 366.11197,743.82898 v 1.13593 l 3.4462,0.0708 0.42221,-0.63837 -0.56241,-0.70911 -0.84445,-0.63989 -0.42142,-0.63824 -0.21112,0.77966 z" />
            <path
               style="fill:#18a303;fill-opacity:1;stroke:#18a303;stroke-opacity:1"
               inkscape:connector-curvature="0"
               id="svg_80"
               d="m 378.02365,686.99377 -1.49277,2.50885 0.29944,1.3053 0.99484,0.40149 0.89484,-1.4054 0.99475,-0.80292 1.29431,0.20026 0.99484,-0.50153 0.89563,-0.90466 -3.28241,-2.3078 -0.79559,0.10095 z" />
            <path
               style="fill:#18a303;fill-opacity:1;stroke:#18a303;stroke-opacity:1"
               inkscape:connector-curvature="0"
               id="svg_79"
               d="m 309.39481,774.02075 -1.09488,2.50885 1.09488,0.70276 1.29349,-0.30133 1.09491,-0.70276 v -1.00397 l -1.79047,-1.40631 z" />
            <path
               style="fill:#18a303;fill-opacity:1;stroke:#18a303;stroke-opacity:1"
               inkscape:connector-curvature="0"
               id="svg_78"
               d="m 349.9758,778.0368 0.69717,1.50568 v 6.92633 l -0.29932,1.30615 -1.19424,0.50146 0.69714,1.00409 4.37726,0.10016 0.29858,-0.70276 -0.49789,-1.10419 0.49789,-1.00482 1.2934,-0.40143 0.99567,1.10419 0.99487,0.70361 1.19336,-0.40155 0.69635,-0.80371 h 1.49347 l 0.89484,-0.60254 -0.39777,-1.30524 -0.59711,-1.00476 -1.2934,0.50146 -1.59348,1.80695 -3.58096,-2.10736 -0.39783,-1.10498 v -3.01117 l -0.79715,0.20105 -1.49191,-0.10022 -1.98895,-2.00641 v 0 z" />
            <path
               style="fill:#18a303;fill-opacity:1;stroke:#18a303;stroke-opacity:1"
               inkscape:connector-curvature="0"
               id="svg_77"
               d="m 357.83313,810.15564 0.19858,1.50714 1.29337,0.10028 -0.79559,-1.10413 -0.69635,-0.5033 v 0 z" />
            <path
               style="fill:#18a303;fill-opacity:1;stroke:#18a303;stroke-opacity:1"
               inkscape:connector-curvature="0"
               id="svg_76"
               d="m 360.61768,812.36395 -0.39856,1.60663 -0.79642,1.10413 1.29431,-0.40137 1.39261,-1.80609 z" />
            <path
               style="fill:#18a303;fill-opacity:1;stroke:#18a303;stroke-opacity:1"
               inkscape:connector-curvature="0"
               id="svg_75"
               d="m 391.75015,813.56915 -0.69635,1.50635 0.59628,0.90387 v 1.10498 l 0.89566,0.90381 0.59781,-0.10089 v -1.50647 l 0.9949,-1.10419 0.49704,-1.00385 -0.79559,-0.70276 -1.49344,-0.10193 -0.59631,0.10107 v 0 z" />
            <path
               style="fill:#18a303;fill-opacity:1;stroke:#18a303;stroke-opacity:1"
               inkscape:connector-curvature="0"
               id="svg_74"
               d="m 335.354,823.70697 -2.48599,0.90503 -0.29901,1.20398 0.29901,1.40601 0.89499,0.703 v 1.50604 l 1.39401,1.90698 0.49799,0.20099 0.099,-1.40601 1.194,-0.80298 1.194,-0.302 0.29901,-2.91101 0.995,-0.90399 -1.98901,-1.60602 -2.09299,0.1 v 0 0 z" />
          </g>
          <path
             d="m 555.76367,1052.465 -2.78229,4.9405 0.77362,0.7106 0.98456,0.283 2.11035,-0.6392 0.42139,-0.8513 2.39142,-2.5557 2.24896,-1.4191 0.35205,-0.7797 -0.21179,-0.8515 -0.84369,-0.4261 -0.35138,-0.7099 -0.70337,-0.5691 -0.98468,0.072 -1.61792,0.7797 -0.56396,0.6383 -0.70343,0.3555 -0.42145,0.7107 -0.0984,0.3109 v 0 z"
             id="outline_liou_chiou"
             inkscape:connector-curvature="0"
             style="fill:#18a303;fill-opacity:1;stroke:#18a303;stroke-opacity:1" />
          <path
             d="m 928.25171,402.82782 1.19495,0.70276 0.99487,-0.10022 0.19861,-1.30603 1.39337,-0.10098 1.39343,0.20111 0.39777,1.30612 1.2934,0.80289 -0.49774,0.80365 -1.29346,0.50162 -2.88379,-0.10013 -1.59198,-1.50647 z"
             id="outline_gue_shan_dao"
             inkscape:connector-curvature="0"
             style="fill:#18a303;fill-opacity:1;stroke:#18a303;stroke-opacity:1" />
          <path
             d="m 819.46423,967.54846 v 2.12958 l 1.82751,1.27747 0.56244,1.98737 v 2.12885 l 0.84442,0.99359 1.96924,0.28387 1.9693,2.41345 1.9693,0.56757 1.40594,-0.28369 -1.40454,-1.41913 -0.14093,-1.70343 2.24884,-3.26483 v -2.12976 l -0.42065,-1.84497 -1.26575,-0.99371 -2.11029,0.14313 -1.82825,-0.85144 -4.07953,0.71069 -1.54706,-0.14459 v 0 z"
             id="outline_lu_dao"
             inkscape:connector-curvature="0"
             style="fill:#18a303;fill-opacity:1;stroke:#18a303;stroke-opacity:1" />
          <path
             d="m 842.95367,1138.1777 1.1264,1.562 1.26501,1.136 h 2.10944 l 1.96918,0.4253 0.9848,-0.2838 0.56384,-1.5613 0.98468,-1.2774 0.28046,-1.8443 -1.82898,-0.8514 -1.26434,-1.2774 -1.54779,-0.4245 -3.37537,-2.9811 -0.56317,-1.5627 0.14093,-1.9875 1.9693,-0.1422 -0.14099,-1.7036 -1.1264,-1.1368 -0.27966,-1.8441 0.98468,-1.1369 -0.84369,-1.2759 -7.73682,0.1415 -1.54779,0.5668 h -4.21893 l -1.26514,-0.8505 -1.26501,0.2823 v 1.4195 l 1.547,0.9938 v 6.2458 l 0.84283,1.2759 1.9693,0.7114 3.93854,4.9684 h 4.21967 l 1.68817,1.1361 0.41986,1.2766 v 0 z"
             id="outline_lan_yu"
             inkscape:connector-curvature="0"
             style="fill:#18a303;fill-opacity:1;stroke:#18a303;stroke-opacity:1"
             inkscape:label="#outline_lan_yu" />
        </g>
        <path
           d="m 842.46899,286.19199 -1.05902,0.17401 -0.78796,0.89401 -0.39398,1.21698 h -4.776 l -1.50104,-1.61398 -0.88599,0.59601 v 1.51498 l -0.88599,0.59601 -3.98901,0.59598 -0.492,-1.29099 -0.492,0.496 -0.19702,1.41599 -1.10797,0.89502 -2.68298,0.69501 -1.08301,0.81998 -1.30402,0.397 -2.78101,5.91299 -0.492,0.099 -2.90497,-0.39697 -0.98499,0.79498 -0.098,1.41602 -0.78802,0.89398 -0.71301,2.31 -0.59094,0.918 -0.19702,1.491 -0.68903,1.01801 -1.89496,1.39099 -0.78802,0.91901 -0.19702,1.491 -1.599,3.10501 -1.50195,0.42099 -0.88605,-0.099 0.19702,0.89401 2.68298,2.509 1.50104,0.099 2.78101,1.31699 1.18195,2.086 1.10706,0.82001 0.78796,0.99301 1.698,3.52798 0.19702,6.013 -0.68903,0.59601 -0.19696,-1.29199 -0.61505,-1.31601 -0.19696,-1.29199 -1.57599,-2.112 -0.098,-1.41501 -0.51703,-1.392 -3.96198,-3.52701 -2.388,-1.29199 h -1.50098 l -0.88605,0.79498 -0.49194,1.91202 -2.90601,2.806 -2.48602,0.99399 -0.98401,0.72 -1.18201,0.29901 -3.29901,2.20999 -4.06,1.29199 -1.00897,0.69601 -9.453,0.099 -1.89502,1.81299 -1.27997,0.49701 -1.50104,-0.099 -1.96997,-1.59 -1.20502,-0.39801 -2.78101,0.59601 -0.78796,0.79501 h -1.50104 l -6.573,2.707 -1.67401,0.1 -1.30396,0.819 -2.88,2.90601 -2.78101,1.29199 -1.20599,1.01901 -9.55103,2.508 h -1.57501 l -2.289,1.19202 -1.10699,1.01797 -1.37897,0.39801 -1.30402,0.79501 -0.98401,1.11697 -1.99396,1.29202 -1.18201,0.39798 -0.91003,0.91901 -1.27997,0.198 -3.10199,1.392 -3.66803,3.229 -1.89502,2.80701 -0.88599,0.69598 -0.81201,2.31003 -2.38696,3.00497 -0.098,1.41602 0.71301,0.99301 v 2.90698 l -1.40302,1.51501 -0.98401,0.59598 -1.00897,1.01801 -0.49304,1.09302 -2.38696,3.20398 -0.98499,0.82001 -4.677,6.90601 0.29498,1.51498 0.591,1.21701 -4.38202,5.51599 -0.492,2.707 -0.78796,0.69601 -0.39404,1.41599 -1.59998,2.01102 -0.39301,1.09399 -0.88702,0.79401 -1.20496,0.49698 -3.98804,5.54001 -0.98499,0.89499 0.49298,2.40903 -0.19696,0.79498 0.39398,0.42099 1.50098,0.10001 0.19702,1.29102 -0.591,1.21698 -0.29498,2.80701 -0.61603,0.89502 -0.098,3.10498 -1.47699,2.01102 -0.39404,1.21698 1.08301,0.89401 -0.58997,0.79498 -0.49304,1.41602 -1.79596,1.71399 -4.383,1.888 -0.68903,1.017 -1.00903,0.89502 -0.98395,2.211 v 1.51498 l -0.29602,1.19202 -0.68903,0.91901 -0.41797,1.29199 -4.35602,3.72699 -1.20599,0.59601 -0.78802,0.89398 -0.098,1.41602 1.37799,0.19901 0.61499,1.29099 1.18201,0.522 1.5,0.19901 0.591,0.79401 -1.008,0.59698 -1.77203,-0.39798 -0.81299,-0.79501 -3.07599,-1.117 h -1.896 l -3.46899,1.61401 -4.38202,0.19901 -1.57599,1.91199 -1.30402,0.198 -2.38696,4.224 -0.492,2.608 -0.78802,0.69601 1.18201,0.89398 1.30298,0.59601 0.099,1.31601 -0.81195,-0.19901 h -1.08301 l -2.09204,1.29199 0.29602,1.61401 -0.29602,1.21698 -0.88599,-1.31601 -2.09198,-1.81299 -2.48602,0.621 -0.90997,0.99301 -0.098,0.59698 -1.77301,2.31 -7.67999,22.77902 -0.88599,1.11697 -0.98499,2.509 -4.086,5.41602 -0.49304,1.09299 -2.38696,3.13101 -2.97803,2.508 -2.48596,0.89499 -0.19702,1.81302 -7.16302,10.03598 -1.50098,3.70099 0.19702,3.03101 -0.099,0.39703 -0.98505,1.29199 -0.41797,1.11798 -2.16602,0.99298 -0.81201,1.41504 -3.66699,2.50897 0.099,1.09302 0.39301,0.91901 0.099,1.68896 -0.68896,0.82001 -1.91101,-0.62097 2.20599,1.01801 0.39398,0.99396 -0.78796,1.117 -0.71301,0.59601 -1.77301,-2.30896 -0.71301,0.39697 -0.88696,0.99402 -1.698,0.91797 0.099,1.39099 -0.591,1.01904 -2.19,1.29199 -0.68903,1.117 3.27301,4.52197 -0.099,1.29199 -0.68903,1.01801 -0.29498,1.19202 -0.81201,-1.51501 0.12201,-1.29199 -1.20502,1.29199 -1.18097,-0.099 -0.32001,-1.49097 0.71301,-1.41504 -0.098,-1.39099 -1.00897,0.99402 -1.77301,5.11798 1.28101,1.01801 0.492,1.09302 0.492,0.39697 0.099,-0.198 1.40295,0.89404 v 1.51495 l -0.49298,1.216 -3.07703,4.49701 -0.90997,0.72003 -1.18201,3.00598 0.099,1.61298 -1.20599,0.29803 0.39398,1.19299 0.51605,0.69501 -1.20605,0.62097 -2.56,3.30402 -0.023,0.099 -2.09204,3.40399 -0.98499,0.62 -4.38202,0.099 0.19702,1.19202 1.20599,1.01898 -0.099,2.90601 -0.81201,0.69501 -0.492,1.09399 -0.29498,1.41498 -0.69,0.99402 -0.098,3.03101 -0.099,0.29797 -0.81097,1.19305 v 1.51495 l 0.492,0.99304 -0.19702,1.51599 -1.08301,0.99298 -2.38696,0.91901 -0.591,1.39099 -1.797,1.91199 -0.19702,2.80701 -0.492,1.11798 -2.09198,0.39703 -1.10699,0.89502 -1.28003,0.198 -1.89496,1.41595 -1.08301,0.39801 -0.29602,1.29102 -3.20001,2.409 -0.591,2.40997 v 1.71301 l -0.68896,1.21802 -0.19702,1.29102 -1.008,0.69598 -0.492,2.60699 -1.896,0.12402 -1.47699,-0.32202 -1.10699,0.91901 -0.78802,3.89899 0.29602,0.91901 h 2.97797 v 0.69598 l -3.76599,5.71399 -0.19696,-0.099 -0.32001,1.61401 -0.68903,0.89404 -0.29498,1.21796 -0.78802,0.79401 -1.008,3.82703 -1.67401,1.888 -0.41901,1.46497 -1.47699,2.01202 -0.492,1.19299 -0.71399,0.81897 -0.19598,1.74005 -0.98499,0.521 -0.88605,0.79498 -1.10797,0.59601 -0.68903,1.01898 -1.10699,0.59601 v 1.09302 l 0.71301,1.01801 -0.51599,0.39795 h -1.47699 l -0.68903,0.99304 -0.22101,2.90601 -0.29596,0.81897 h -2.97803 l -0.98499,-0.521 -1.10602,-0.19897 -0.39398,1.21698 -1.37903,0.1 -4.776,8.62006 -0.098,0.52197 -1.698,-0.1 -1.00903,0.59595 -1.57501,1.91302 -0.49194,1.29199 -0.19702,3.005 -0.81201,0.91901 -0.19702,1.29102 1.30402,1.91296 -0.19696,1.41602 -1.30402,1.888 -2.48602,0.099 -0.29596,1.21698 v 1.49103 l -1.69803,0.91797 v 1.91205 l -0.098,-0.099 -0.39401,0.19897 -0.29599,1.29199 v 1.51501 l 0.39398,1.09302 1.50201,0.099 1.08301,1.61499 -1.797,2.20996 -1.08301,2.21002 -0.29602,1.19299 -1.5,2.50903 -0.78799,2.80701 -1.009,1.51398 -2.06799,5.91302 0.19699,5.93695 -0.29498,1.19299 0.098,1.117 1.379,0.69604 -0.099,1.31598 -1.181,0.49701 -1.698,1.29199 0.39301,1.71301 0.88699,0.49701 1.20599,0.19897 0.098,1.51501 -0.78802,0.99298 v 3.00598 l 0.98502,0.72003 1.60001,2.20996 1.08298,0.89404 -0.98499,0.59698 -0.71301,1.31598 -1.379,0.099 -0.39398,-1.117 -0.81201,-0.69598 -1.181,0.69598 -1.797,2.11102 -1.18201,0.59601 -0.29498,7.22998 0.689,1.21704 1.379,0.49597 4.48001,-0.29797 1.10699,0.49695 v 1.51501 l -0.61502,1.09302 -0.39398,1.41602 -0.689,0.89496 v 1.61304 l -0.59,1.19299 0.29498,1.61401 1.28,0.69598 h 1.30402 l -1.698,3.32898 -0.098,1.39099 1.20502,0.29803 v 1.31598 l -0.81201,2.50903 0.099,1.48999 0.61499,1.21698 0.98502,0.79498 1.10599,-0.99298 0.49301,0.69501 0.19699,2.80701 -0.78799,1.31598 -1.008,3.99902 -2.88,1.21698 -1.108,-0.099 -2.36301,5.51501 -0.12299,4.02496 0.32001,1.19202 h 2.979 l 1.27899,0.49701 0.29599,1.31598 -0.78799,-0.79498 -5.66199,-1.01801 -3.07602,5.41602 0.492,1.01801 0.78799,0.1 -0.492,1.48999 -1.009,0.72003 -0.19699,1.39197 2.19101,1.31604 0.909,0.19897 1.28,-0.39801 -1.69699,2.508 -2.68301,0.99402 -0.689,1.01801 0.19699,1.39203 0.59,1.21698 -1.96899,1.888 -0.32001,1.31598 -0.59,1.09302 -1.896,-0.49701 -0.492,1.01801 -0.591,2.70703 0.099,3.00598 -3.89001,7.32898 -0.39401,2.80603 -1.181,2.013 0.88602,-1.11804 1.20599,-0.49701 1.181,-0.099 0.49301,6.33502 0.909,0.69501 1.18201,0.49701 -0.68903,4.22296 -2.58398,1.09302 h -0.19699 l -2.78101,0.91901 -2.48599,2.31 -2.58502,1.19202 -0.19699,2.80701 0.19699,0.39697 0.19702,2.93201 0.59097,0.69598 h 1.50101 l -0.098,4.72003 0.591,1.91296 1.67398,1.987 0.22101,0.62 1.47702,-0.521 1.89499,-1.58899 0.19699,1.29102 -0.19699,1.41498 3.66699,2.211 0.71301,0.19904 1.379,1.29199 2.48599,1.31598 3.10199,3.30402 1.181,0.59601 4.186,3.92499 0.098,0.39801 2.68298,2.60797 1.89401,2.90601 1.28,-0.29797 1.797,-1.68903 1.08301,-0.62097 -0.78699,1.71399 -0.69003,0.89398 v 1.01801 l 2.58499,0.69598 -1.30499,1.117 -1.47699,-0.099 -0.81201,-1.11798 -0.689,-0.39697 0.591,1.51495 0.91,1.19202 0.39401,1.31702 -0.39401,7.62598 -0.418,1.09302 0.418,1.31702 1.37897,1.58997 0.591,3.32904 2.38702,5.01794 v 1.49103 h 0.51703 l 0.19696,-1.29199 0.492,-1.01801 1.50104,-0.1 1.67395,4.02496 -0.19696,1.29199 -1.47699,0.19904 -1.10706,-0.69604 -0.59094,-0.99298 -0.29504,0.69501 0.098,1.41498 0.591,1.789 0.099,1.41602 1.40198,2.70703 v 1.09296 l 7.04004,16.76904 0.12299,1.41498 1.18201,2.70801 1.08197,1.39099 3.79102,8.24799 3.56897,4.422 -1.67395,1.987 -3.07605,-3.10498 1.96899,4.82001 -3.17499,3.10498 -0.19696,3.32898 -0.39404,1.29205 0.39404,1.41595 2.19,2.01202 0.69,1.09302 v 1.51398 l 0.68896,0.79498 -0.099,1.51501 -0.88599,0.59601 0.591,0.89502 1.20599,0.59595 0.98499,2.73303 2.091,2.08698 0.492,1.117 1.00903,1.39099 0.88599,0.62103 0.78796,0.89398 0.51703,1.09302 2.36298,3.03101 0.61499,1.39099 -2.09198,0.39801 -0.39398,0.51996 v 0.49404 l 1.27997,0.2999 2.58502,-0.1 0.492,0.1 2.60999,2.81 1.08301,0.5901 1.79602,2.02 0.49298,1.11 9.64899,7.63 1.37903,0.6 2.19,2.01 4.284,1.29 0.19696,-0.5 -0.69,-11.55 0.69,-2.31 0.68903,-0.89 1.30402,0.3 v 1.51 l -0.59003,0.9 -0.099,3 -0.39398,1.02 0.591,1.3899 0.098,7.2301 2.29004,0.2 1.57501,1.5099 -0.098,1.4201 -0.69,0.2 1.40198,1.89 3.96301,2.9299 0.71399,0.99 1.08301,0.5 0.492,0.1 -0.12201,-0.03 0.12201,0.33 2.388,1.01 0.91003,1 1.18097,0.8199 2.289,0.7901 0.88599,0.8 1.20599,0.59 0.78802,0.72 1.30499,0.5999 0.88599,0.7901 7.55701,4.13 0.88599,1.0899 1.30505,0.4201 8.54095,6.91 0.71399,1.02 1.57605,4.29 -0.29602,0.63 4.284,2.9 4.57898,5.81 0.39404,1.22 v 3.7999 l 1.40198,2.3101 0.59003,2.71 -0.098,1.42 -0.39398,1.1899 0.099,1.2101 3.17499,2.71 0.68896,1 1.00903,0.8099 0.591,1 0.78796,2.8101 2.58405,2.6999 -0.68903,1.4201 v 1.51 l 0.29498,1.39 0.91003,1 1.27997,3.9199 0.098,4.4301 0.78802,2.5999 v 1.5201 l 0.51697,0.9899 0.39398,1.72 0.98401,0.89 0.591,0.99 0.22198,1.4201 1.08301,1.0899 0.19604,2.8301 0.591,1 -0.098,1.51 -0.591,1 -4.08698,1.19 0.19696,1.3199 1.40302,0.29 0.39398,1.0201 -0.098,0.5 0.29498,1.29 0.492,1.02 -0.492,0.99 -0.68903,0.7999 -1.99396,1.2101 -0.19702,1.3 0.78802,0.92 -2.97803,2.7999 v 2.9101 l 1.20599,0.69 v 1.5199 l 0.98401,0.89 -0.29498,1.2201 3.07697,2.71 0.29504,1.0899 1.00897,1.0201 0.591,0.99 0.39398,2.01 -0.69,2.41 0.099,4.72 -0.88599,2.11 0.68903,0.9 1.37799,0.1999 0.71399,2.61 0.78802,1.3101 3.07599,0.2999 1.20599,-1.9099 0.88599,-0.7001 0.19702,-1.3099 -0.591,-2.51 0.492,-1.1 1.10797,-0.49 1.57501,-1.7201 1.00897,-0.49 h 1.47705 l 0.39398,1.0901 3.29901,2.3099 0.39398,0.1 1.797,-0.1 1.28003,0.3001 0.49194,1.02 1.20605,0.2899 1.08295,0.7001 1.50104,0.5 1.50098,0.1 2.97803,3.03 0.099,1.3899 1.47699,0.4901 0.71301,0.63 0.49298,0.99 0.098,1.3899 2.09198,2.01 h 1.47601 l 1.01001,-0.6899 -0.19702,-1.3201 -0.81299,-0.7 -0.29498,-1.29 0.099,-1.4099 -0.39404,-1.1001 -3.86401,-5.9299 v -5.8201 l 0.39404,-1.11 -0.492,-1.1 0.39301,-2.41 0.78796,-0.2899 0.098,-1.3201 2.68298,-0.3999 1.30402,-0.5 0.492,-0.9901 1.18201,-0.2999 1.00897,-0.8201 0.39404,-1.1899 0.098,-1.4101 0.69,-0.7999 1.40204,-0.1001 0.29596,-2.71 2.87903,-1.91 0.29498,-1.12 -1.57501,-1.98 -0.099,-7.4299 -0.909,-1.3201 v -1.51 l 2.091,-3.5599 0.78802,-0.8401 v -1.22 l -1.18201,-0.49 -1.599,-1.7199 -0.492,-1.2901 -0.19702,-3.8299 0.19702,-0.5401 0.68896,-0.05 0.39404,-0.5 0.56598,-0.4 0.24701,-0.5701 -0.68903,-1.09 0.049,-2.91 -0.66498,-1.02 0.19696,-0.49 0.41803,-0.45 0.24597,-0.5 0.14801,-0.5899 -0.14801,-0.62 v -1.49 l -0.24597,-0.7801 -0.31903,-0.44 0.049,-0.8999 -0.492,-0.64 -0.24597,-0.6701 0.14801,-1.3 1.10699,-0.9099 0.29596,-0.5 0.14801,-0.5501 0.049,-1.4599 -0.19702,-0.6501 v -0.55 l 0.14801,-0.3999 -0.68896,-0.8101 0.591,-2.6099 0.78796,-0.9001 0.39301,-1.0899 -0.78699,-0.9201 -0.88599,-13.14 -1.00903,-1.3199 -0.19696,-4.2901 0.49298,-1.12 v -2.8099 l 2.28802,-7.23 1.99396,-2.01 0.39404,-4 0.68896,-1.02 2.80603,-8.0201 0.69,-0.89 0.39294,-1.12 1.50104,-2.01 0.29498,-1.39 0.78802,-1.02 0.19696,-2.8099 0.68903,-0.8901 0.41901,-2.81 0.98401,-1.32 -0.098,-1.69 1.698,-3.33 v -3 l 0.68903,-0.6999 v -1.51 l 2.289,-5.4201 v -2.0099 l 0.98401,-0.6001 v -1.51 l 0.51697,-1.29 0.098,-1.41895 0.69,-0.99298 0.19696,-1.31604 0.59003,-0.99396 1.30499,-0.69501 0.68903,-1.01898 2.78094,-2.50806 1.55103,-2.26099 0.05,-1.09296 0.591,-1.16803 0.14801,-4.15002 0.14801,-0.47198 -0.098,-1.39099 0.59003,-1.21698 0.099,-1.39099 0.71301,-0.91803 0.19696,-1.29199 0.88599,-1.01801 0.68903,-2.50897 1.30402,-2.08704 0.88696,-0.81897 3.20001,-1.39105 0.88599,-0.81995 1.40204,-0.099 0.78796,-0.99402 0.29504,-1.21698 2.09296,-0.99304 1.698,-1.41595 0.98401,-0.49701 0.69,-0.89404 1.40204,-0.1 0.78796,-0.79498 1.50104,-0.22302 1.08295,-0.49701 0.78802,-0.69501 1.698,-0.49701 1.59998,-1.01794 2.97803,-3.60205 1.20502,-0.49597 0.88696,-0.62103 0.59003,-0.89398 1.99402,-1.61401 0.59094,-0.99396 0.91003,-0.79504 2.16699,-0.91895 1.69702,-1.59003 1.00897,-6.33502 1.08301,-1.09296 1.30499,-0.198 1.67303,-1.51605 0.39398,-1.31598 -0.88599,-2.18597 0.29498,-1.41602 -0.78699,-0.89398 -1.00903,-0.52203 -0.49298,-0.99298 0.591,-0.99402 h 1.50098 l -0.29498,-1.01801 -1.40302,-1.58997 -0.492,-1.01801 0.19702,-1.29199 0.591,-0.91901 4.57898,-3.79901 2.68201,-0.39801 1.10699,-0.422 2.48602,0.62103 0.099,-2.41003 1.89502,-2.01202 1.18097,-0.29797 0.91101,-0.81897 0.492,-2.50903 1.67401,-3.50201 1.698,-1.61395 2.68298,-5.91302 0.19702,-2.508 0.51599,-0.19904 0.68896,-1.21698 0.88702,-0.79498 1.40198,-0.099 0.39404,-1.09302 2.58398,-2.73297 v -1.49103 l 0.39398,-1.216 0.591,-0.69598 1.00903,-4.02399 0.78796,-1.29199 0.78699,-2.31 0.81201,-0.89502 0.88702,-0.62 0.19598,-1.29102 0.91101,-1.31702 0.68896,-4.52197 0.78802,-1.09302 1.10699,-3.92499 1.57501,-2.28497 v -1.51605 l 0.61499,-0.99298 v -1.51501 l 1.08301,-0.59698 0.69,-0.91797 2.97797,-0.099 1.00806,-0.49701 1.69897,-3.30402 0.98401,-0.81903 2.88,-0.1 0.68896,-2.30902 -2.38696,-2.50897 -0.099,-4.297 1.10797,-1.11798 0.19702,-2.90601 -0.29602,-1.41504 -1.50098,-3.00598 -0.24701,-6.31 2.33899,-1.61401 -0.098,-1.09302 -0.78796,-0.81995 0.88599,-0.39703 0.68903,1.11798 1.10797,0.198 1.18103,-0.91895 0.61597,-0.99304 -0.41901,-1.11798 -0.68896,-0.89398 1.40295,-5.01904 0.098,-1.51495 0.39398,-1.19202 0.78802,-0.99402 0.29498,-3.22998 0.91003,-0.89398 0.099,-1.31604 0.492,-1.09296 1.08295,-1.01801 0.61505,-0.99402 0.88599,-2.50903 0.98499,-0.79498 1.20599,-0.29797 h 1.47699 l 1.20502,-0.81799 0.88599,-4.42303 -0.098,-4.39697 1.40295,-3.03101 1.47705,-10.13501 1.10699,-0.69598 v -1.51501 l 2.88,-7.30402 0.29498,-2.93201 0.39398,-1.19196 v -1.51501 l 0.61499,-1.19202 -1.30396,-0.82001 -0.29504,-0.39801 1.40302,-0.099 1.18103,-0.49695 0.78796,-0.89404 0.41699,-1.216 0.099,-2.90698 -1.30396,-2.01202 v -3.00494 l -0.492,-1.31604 -0.39404,-0.29797 0.19702,-1.68903 0.68903,-1.11798 0.099,-2.90601 0.98395,-2.60901 0.12201,-1.51398 1.28003,-1.888 0.29596,-1.31604 1.10706,-0.99396 0.68896,-2.409 0.099,-3.13104 0.68903,-1.39099 0.099,-10.13599 1.00897,-1.216 0.39404,-2.70801 1.18097,-0.49701 0.81097,-0.89398 -0.61395,-0.91803 -0.098,-0.99396 0.71198,-0.82001 0.69,-5.51501 0.492,-0.99402 0.19702,-1.315 0.68903,-0.89496 -0.591,-2.01202 -0.68903,-0.49597 0.099,-1.41602 0.492,-1.09302 v -1.41595 l 1.30402,-0.89404 2.78198,-4.323 1.08301,-5.11798 -0.39398,-1.09302 v -8.34698 l 1.00897,-2.70703 2.06799,-2.80695 0.22101,-1.39105 1.47699,-3.13 0.19702,-1.29199 0.492,-1.117 v -1.49097 l 1.50098,-3.42798 0.29498,-2.70801 0.49304,-0.99304 0.098,-4.42297 0.41803,-1.31598 0.49298,-5.81305 0.39301,-1.09296 -0.098,-4.42303 -1.10797,-2.409 0.81299,-2.40997 0.88599,-0.89404 0.492,-1.31598 0.81201,-0.69501 h 1.18201 l 0.591,0.89404 1.5,-0.099 0.591,-2.41003 h -1.28003 l 0.88605,-2.01202 1.20599,-0.39697 -0.51703,-0.99402 0.29602,-1.315 1.10699,0.29803 0.78802,-2.70801 v -1.48999 l -5.66205,-5.93799 -0.39398,-2.60803 -0.492,-0.99402 -0.099,-9.44 1.18201,-2.11096 2.73199,-2.70801 1.20599,-0.646 2.53601,-2.95599 1.08301,-0.37402 1.10797,-1.93799 0.29504,0.19897 0.19696,-0.39795 0.39404,-4.12402 0.58997,-0.59601 -1.89502,-3.42902 v -4.521 l 0.81201,-2.60797 3.07703,-4.198 0.98499,-0.62103 0.71301,-0.89398 1.18097,-0.29797 2.58502,-2.31 1.30402,-0.19904 0.98499,-0.79498 2.38702,-4.323 2.78094,-0.29803 0.19702,-0.099 0.61499,-1.51495 1.18201,-0.49701 0.88599,-2.11102 0.91003,-0.69598 0.099,-4.422 2.09198,-3.10504 1.77203,-1.61499 0.71295,-1.19196 1.18201,-0.52203 0.492,-0.99402 -0.098,-4.22296 -0.591,-0.99402 0.098,-2.90601 1.99402,-3.82599 0.29498,-1.19202 1.20599,-2.01196 0.39404,-8.64502 0.39398,-1.29199 0.68903,-0.91901 v -1.68903 l 0.78796,-2.80695 1.40204,-1.91202 0.39398,-1.41602 2.09198,-1.29199 0.78802,-0.91901 1.00897,-2.086 0.098,-1.41599 3.56897,-3.40302 3.59503,-1.51498 h 1.47699 l 0.41797,-0.198 -1.10797,-0.59702 -0.78699,-0.819 -0.591,-0.99399 v -1.51501 l -1.99402,-1.19199 -0.39398,-3.92603 1.37897,-0.89398 0.68903,-1.01901 2.58502,-0.496 2.19,-1.392 1.30499,-0.298 0.39301,-1.31598 -0.098,-1.19202 -0.492,-1.41498 -0.099,-1.41602 -0.591,-0.89499 -0.22101,-2.80701 0.61499,-0.89401 -0.71295,-1.11798 0.51599,-1.19202 h 1.47699 l -0.19702,-1.117 -0.78699,-0.69498 -0.19702,-0.39801 1.18103,-0.521 -0.98401,0.22299 -1.40302,-0.521 -0.099,-0.99399 -1.89496,-1.71402 0.31995,-1.29199 1.37805,-0.099 1.20599,0.69501 0.19696,1.41599 1.37903,-0.099 1.20599,-0.621 -2.88,-2.90601 -2.388,-0.79498 -0.31897,-0.59601 -0.39404,-0.12399 -1.27997,-1.78799 -0.099,-1.01901 -2.88,-7.229 -0.098,-3.00598 -0.61499,-0.89401 0.29602,-0.49701 v -1.61398 l -0.39404,-1.31702 0.39404,-8.12299 -2.289,-2.509 -0.68903,-1.19199 v -1.31601 l -1.08398,-1.29199 -0.492,-2.707 0.099,-1.41602 -0.81299,-0.79498 0.39398,-11.15402 0.51703,-1.71298 v -1.49002 l 0.98499,-2.211 -0.19702,-2.90698 0.78699,-2.409 0.099,-1.41501 1.89502,-4.099 0.19702,-1.41501 1.008,-1.71399 1.18201,-0.59702 0.78796,-2.30899 0.71301,-0.89401 1.08301,-0.39798 2.979,-3.52802 1.00897,-0.496 2.48602,-2.90698 0.19702,-2.806 0.39398,-1.21701 2.18903,-1.29199 1.18195,-0.298 1.20605,-1.71399 0.93097,-0.75201 0.966,-0.465 1.96899,-2.806 0.22101,-1.48999 1.37897,-0.82001 1.40204,-0.19901 0.98199,-0.401 0.88898,-0.89099 1.30402,-0.198 0.98499,-0.621 1.50104,-0.099 3.07599,-1.392 0.61096,-1.22101 1.38306,-0.095 0.58997,-0.89401 2.19098,-1.01797 0.61102,-1.047 1.48102,-0.14502 0.54102,-1.14398 0.05,-1.16602 -1.47699,-1.61499 -1.10706,0.099 -0.88696,0.82001 -0.91003,-1.71402 -1.08295,-0.397 -0.68903,-0.79498 -1.15698,-0.272 -1.42804,0.048 -0.66095,0.67398 -1.33203,0.84302 -3.17499,-0.298 -3.89001,-3.20401 -0.29498,-1.117 v -4.52197 l -0.49304,-0.59601 1.08405,-0.79501 -0.19702,-0.49698 -3.27301,-3.32901 -1.00897,-2.41 1.20599,-3.60101 1.18097,-0.81998 0.29602,-1.19202 -0.49298,-0.99399 -0.78699,-0.72 -0.49304,-0.69501 0.591,-0.99399 0.98499,-0.621 v -1.49002 l -1.37897,-0.1 -1.30402,0.29898 -0.78796,0.79501 -2.68304,0.918 h -1.5 l -4.67798,-1.01801 -1.18103,0.49701 -1.10797,-0.49701 -3.47003,-0.099 -2.289,-0.69601 -1.08295,0.59601 -1.00903,0.99402 h -1.27997 l -0.81201,-0.99402 0.29498,-1.29099 0.61603,-1.01901 0.492,-0.49701 h -1.50201 l -1.28003,0.49701 h -1.50098 l -0.68903,-0.89398 0.39404,-2.70801 -1.40204,0.10001 -1.87097,1.19199 -1.698,-1.59 -1.50201,-0.12302 -0.68903,-0.49698 v -1.689 l -1.27997,-0.323 -0.61401,1.11798 -1.18201,0.298 -0.29498,-1.19199 h -1.01001 l 0.39398,1.19199 1.10803,1.61401 -1.40302,1.78799 -2.19098,1.61499 -0.98401,0.099 1.797,-1.71399 -0.61603,-1.09302 v -2.504 l -1.18097,-0.10001 -1.08301,-0.59598 -1.40302,-0.19901 -1.59998,-1.61401 h -3.07599 l -0.88599,-0.59698 0.19696,-1.117 -0.591,-1.19299 -1.30499,-0.298 -0.98401,-0.819 -1.20599,-0.39801 -1.27997,-0.89398 -0.41803,-1.01801 0.51599,-1.19202 2.289,-1.11798 -0.22101,-0.59601 -0.88599,-0.79501 0.78802,-0.89398 1.10699,-0.621 0.98499,-0.89401 -0.29602,-0.89499 -3.56897,3.10501 -4.97302,0.29898 -3.88898,-4.02499 -0.19702,-0.99399 0.98401,-1.017 -0.492,-0.99402 h -1.57501 l -1.10797,-0.49698 -1.599,-1.61401 0.41797,-3.00601 -0.29596,-1.41599 -0.51599,-0.99402 -0.88605,-0.79498 -2.88,-4.12399 -2.48596,-0.79501 -1.40204,-1.81299 -1.08295,-0.59601 h -1.50104 l -1.08301,-0.72 -0.81195,-0.89499 -0.98505,-0.59601 -0.33899,-0.071 v 0 0 0 0 0 z"
           id="outline_taiwan_mainland"
           inkscape:connector-curvature="0"
           style="fill:#18a303;fill-opacity:1;stroke:#18a303;stroke-opacity:1" />
      </g>
      <g
         transform="matrix(0.0440715,0,0,0.0440715,5.3539516,232.41596)"
         id="group_taiwan_farther_islands">
        <g
           id="g4289">
          <path
             inkscape:connector-curvature="0"
             style="fill:none;stroke:#000000;stroke-width:3;stroke-linecap:butt;stroke-linejoin:miter;stroke-miterlimit:4;stroke-dasharray:none;stroke-opacity:0.41568627"
             d="m 63.374327,1047.5346 h 43.418013 v 43.418"
             id="path5329" />
          <path
             inkscape:connector-curvature="0"
             style="fill:#18a303;fill-opacity:1;stroke:#18a303;stroke-width:1.08373988;stroke-linecap:butt;stroke-linejoin:miter;stroke-miterlimit:4;stroke-dasharray:none;stroke-opacity:1"
             d="m 80.355994,1068.8703 1.113629,-0.6959 1.299232,0.047 1.99523,1.2064 2.227248,0.5104 0.881624,0.8817 1.113618,2.2735 -2.180843,-0.1391 -2.969664,-0.8816 -2.830458,-0.928 -1.392031,-0.9281 1.160036,-0.093 2.08803,1.2528 2.830458,-0.4176 -0.60321,-0.9744 -2.784052,-0.464 -0.696021,-0.3713 -1.345625,0.2321 0.09277,-0.5105 z"
             id="path3219" />
        </g>
        <g
           id="g4293">
          <path
             inkscape:connector-curvature="0"
             id="path4042"
             d="m 63.374323,1130.8679 h 43.418017 v 43.418"
             style="fill:none;stroke:#000000;stroke-width:3;stroke-linecap:butt;stroke-linejoin:miter;stroke-miterlimit:4;stroke-dasharray:none;stroke-opacity:0.41568627" />
          <path
             inkscape:connector-curvature="0"
             style="fill:#18a303;fill-opacity:1;stroke:#18a303;stroke-width:1.08373988;stroke-linecap:butt;stroke-linejoin:miter;stroke-miterlimit:4;stroke-dasharray:none;stroke-opacity:1"
             d="m 81.735981,1156.1219 3.002469,-0.9651 1.822926,-0.1608 0.02677,0.6434 -2.788009,1.5548 -2.332262,-0.1877 0.268075,-0.8846 z"
             id="path3221" />
        </g>
      </g>
    </g>
  </g>
  <g
     inkscape:groupmode="layer"
     id="layer3"
     inkscape:label="台版"
     style="display:none">
    <text
       transform="translate(0,-197.00002)"
       xml:space="preserve"
       style="font-style:normal;font-variant:normal;font-weight:normal;font-stretch:normal;font-size:10.58333302px;line-height:52.91666412px;font-family:'思源黑體 TW';-inkscape-font-specification:'思源黑體 TW';letter-spacing:0px;word-spacing:0px;fill:#000000;fill-opacity:1;stroke:none;stroke-width:0.26458332px;stroke-linecap:butt;stroke-linejoin:miter;stroke-opacity:1"
       x="12.609083"
       y="269.55307"
       id="brand-zh-tw-new-tai"><title
         id="title4281">「台」版品牌名</title><tspan
         sodipodi:role="line"
         x="12.609083"
         y="269.55307"
         style="font-style:normal;font-variant:normal;font-weight:normal;font-stretch:normal;font-family:'思源黑體 TW';-inkscape-font-specification:'思源黑體 TW';stroke-width:0.26458332px"
         id="tspan32">台灣在地化社群</tspan></text>
  </g>
  <g
     inkscape:groupmode="layer"
     id="layer2"
     inkscape:label="臺版"
     style="display:inline">
    <a
       id="brand-zh-tw-original-tai">
      <title
         id="title4279">「臺」版品牌名</title>
      <text
         id="text30-3"
         y="269.57098"
         x="12.593857"
         style="font-style:normal;font-variant:normal;font-weight:normal;font-stretch:normal;font-size:10.58333302px;line-height:52.91666794px;font-family:'思源黑體 TW';-inkscape-font-specification:'思源黑體 TW';letter-spacing:0px;word-spacing:0px;fill:#000000;fill-opacity:1;stroke:none;stroke-width:0.26458332px;stroke-linecap:butt;stroke-linejoin:miter;stroke-opacity:1"
         xml:space="preserve"
         transform="translate(0,-197.00002)"><tspan
           id="tspan32-6"
           style="font-style:normal;font-variant:normal;font-weight:normal;font-stretch:normal;font-family:'思源黑體 TW';-inkscape-font-specification:'思源黑體 TW';stroke-width:0.26458332px"
           y="269.57098"
           x="12.593857"
           sodipodi:role="line">臺灣在地化社群</tspan></text>
    </a>
  </g>
</svg>
