<?xml version="1.0" encoding="UTF-8" standalone="no"?>
<!-- Created with Inkscape (http://www.inkscape.org/) -->

<svg
   xmlns:dc="http://purl.org/dc/elements/1.1/"
   xmlns:cc="http://creativecommons.org/ns#"
   xmlns:rdf="http://www.w3.org/1999/02/22-rdf-syntax-ns#"
   xmlns:svg="http://www.w3.org/2000/svg"
   xmlns="http://www.w3.org/2000/svg"
   xmlns:sodipodi="http://sodipodi.sourceforge.net/DTD/sodipodi-0.dtd"
   xmlns:inkscape="http://www.inkscape.org/namespaces/inkscape"
   width="10cm"
   height="10cm"
   viewBox="0 0 100 99.999997"
   version="1.1"
   id="svg8"
   inkscape:version="0.92pre1 unknown"
   sodipodi:docname="l10n-tw-logo-taiwan.svg"
   inkscape:export-filename="/home/buo-ren/工作空間/社群/台灣在地化社群/l10n-tw 的代表 logo/l10n-tw-logo-taiwan.svg.png"
   inkscape:export-xdpi="90.678001"
   inkscape:export-ydpi="90.678001">
  <defs
     id="defs2" />
  <sodipodi:namedview
     id="base"
     pagecolor="#ffffff"
     bordercolor="#666666"
     borderopacity="1.0"
     inkscape:pageopacity="0"
     inkscape:pageshadow="2"
     inkscape:zoom="2.0000001"
     inkscape:cx="103.51829"
     inkscape:cy="159.67968"
     inkscape:document-units="mm"
     inkscape:current-layer="group_taiwan_and_small_islands"
     showgrid="false"
     units="cm"
     inkscape:pagecheckerboard="true"
     inkscape:window-width="1301"
     inkscape:window-height="744"
     inkscape:window-x="65"
     inkscape:window-y="24"
     inkscape:window-maximized="1"
     showguides="false" />
  <metadata
     id="metadata5">
    <rdf:RDF>
      <cc:Work
         rdf:about="">
        <dc:format>image/svg+xml</dc:format>
        <dc:type
           rdf:resource="http://purl.org/dc/dcmitype/StillImage" />
        <dc:title />
        <cc:license
           rdf:resource="http://creativecommons.org/licenses/by-sa/4.0/" />
      </cc:Work>
      <cc:License
         rdf:about="http://creativecommons.org/licenses/by-sa/4.0/">
        <cc:permits
           rdf:resource="http://creativecommons.org/ns#Reproduction" />
        <cc:permits
           rdf:resource="http://creativecommons.org/ns#Distribution" />
        <cc:requires
           rdf:resource="http://creativecommons.org/ns#Notice" />
        <cc:requires
           rdf:resource="http://creativecommons.org/ns#Attribution" />
        <cc:permits
           rdf:resource="http://creativecommons.org/ns#DerivativeWorks" />
        <cc:requires
           rdf:resource="http://creativecommons.org/ns#ShareAlike" />
      </cc:License>
    </rdf:RDF>
  </metadata>
  <g
     inkscape:label="主圖層"
     inkscape:groupmode="layer"
     id="layer1"
     transform="translate(0,-197.00002)"
     style="display:inline">
    <flowRoot
       xml:space="preserve"
       id="flowRoot10"
       style="font-style:normal;font-weight:normal;font-size:40px;line-height:200px;font-family:sans-serif;letter-spacing:0px;word-spacing:0px;fill:#000000;fill-opacity:1;stroke:none;stroke-width:1px;stroke-linecap:butt;stroke-linejoin:miter;stroke-opacity:1"
       transform="matrix(0.26458333,0,0,0.26458333,0,197.00002)"><flowRegion
         id="flowRegion12"><rect
           id="rect14"
           width="205"
           height="99"
           x="87"
           y="61.952759" /></flowRegion><flowPara
         id="flowPara16">台灣台灣 llafkdjslfjdsfjdsl</flowPara><flowPara
         id="flowPara18" /><flowPara
         id="flowPara20" /><flowPara
         id="flowPara22" /><flowPara
         id="flowPara24" /><flowPara
         id="flowPara26" /></flowRoot>    <a
       id="official-site-url"
       target="http://l10n.tw">
      <title
         id="title4283">官方網站網址</title>
      <text
         id="text38"
         y="280.69241"
         x="31.604183"
         style="font-style:normal;font-variant:normal;font-weight:normal;font-stretch:normal;font-size:10.58333302px;line-height:20000%;font-family:'思源黑體 TW';-inkscape-font-specification:'思源黑體 TW, Normal';font-variant-ligatures:normal;font-variant-caps:normal;font-variant-numeric:normal;font-feature-settings:normal;text-align:start;letter-spacing:0px;word-spacing:0px;writing-mode:lr-tb;text-anchor:start;fill:#000000;fill-opacity:1;stroke:none;stroke-width:0.26458332px;stroke-linecap:butt;stroke-linejoin:miter;stroke-opacity:1;image-rendering:auto"
         xml:space="preserve"
         sodipodi:linespacing="20000%"><tspan
           sodipodi:role="line"
           id="tspan4274"
           x="31.604183"
           y="280.69241">l10n.tw</tspan></text>
    </a>
    <g
       id="group_taiwan_and_small_islands"
       transform="matrix(1.23845,0,0,1.23845,-10.089594,-54.928461)"
       style="fill:#18a303;fill-opacity:1;stroke:none;stroke-opacity:1">
      <title
         id="title4285">台灣本島跟離島輪廓</title>
      <path
         style="fill:#18a303;fill-opacity:1;stroke:none;stroke-width:0.43966624;stroke-opacity:1"
         d="m 56.194071,213.04931 c -2.118395,0.94239 -1.237838,1.66289 -3.664429,2.18308 -1.666556,0.35918 -2.305253,1.80473 -3.103532,3.11267 0.04925,1.15202 -0.877225,1.91824 -1.607086,2.3795 -0.696358,0.68665 -1.291262,2.29298 -2.12818,3.29975 -0.480669,0.68032 -0.704619,1.55792 -1.244917,2.6109 -1.035474,0.9603 -1.116095,2.47386 -2.290637,3.34427 -0.899094,1.03399 -0.544688,2.66073 -1.076277,3.58312 0.922064,0.87284 -0.03882,1.98144 -0.09267,2.75609 -0.621566,0.70385 -0.164808,1.52318 -0.71545,2.05043 1.23527,0.82229 1.589673,1.98361 1.871488,3.34922 0.743282,1.06133 0.01744,2.41213 1.447525,3.19467 0.729682,1.14365 -0.695817,-0.70471 0.703162,0.32679 1.15309,0.91225 2.410509,1.7394 2.71471,3.28727 0.463533,1.06475 -0.29205,2.16074 0.4488,3.0666 0.328575,-1.12549 1.926858,1.23507 1.156382,-0.5409 1.210803,-1.18302 0.106012,-3.12067 0.722477,-4.57393 0.625786,-1.29887 0.655316,-3.04928 1.987736,-3.79932 1.148953,-0.57325 0.829993,-1.75764 1.767766,-2.42144 0.649205,-1.24263 1.343134,-2.30405 1.518756,-3.53642 0.536259,-1.23234 0.943843,-2.56386 1.119953,-3.91921 0.343809,-1.65618 0.649162,-3.4534 1.211377,-4.94269 -0.555062,-1.3868 0.71664,-2.45611 1.336116,-3.63787 0.01391,-1.23828 1.08856,-1.99817 1.03571,-3.05743 -0.373741,-0.72652 -1.127005,-3.02929 0.21888,-3.98943 0.577767,-0.52881 1.616571,-0.91583 0.401397,-1.11756 -0.206857,-0.71841 -0.0519,-1.28812 -1.055681,-1.03791 -0.553756,-0.43347 -1.425576,-0.0528 -1.427942,-0.95796 -0.648657,0.3268 -0.602452,-0.9607 -1.255438,-1.01229 z"
         id="outline-taiwan-mainland"
         inkscape:connector-curvature="0"
         sodipodi:nodetypes="ccccccccccccccccccccccccccccc">
        <title
           id="title4297">台灣本島輪廓</title>
      </path>
      <g
         style="fill:#18a303;fill-opacity:1;stroke:none;stroke-opacity:1"
         transform="matrix(0.79500242,0,0,0.79500242,7.9302839,50.587192)"
         id="group-taiwan-outsea-islands">
        <title
           id="title4287">台灣離島群組</title>
        <g
           style="fill:#18a303;fill-opacity:1;stroke:none;stroke-opacity:1"
           id="g4469">
          <g
             id="outline-peng-hu"
             style="fill:#18a303;fill-opacity:1;stroke:none;stroke-opacity:1"
             transform="matrix(0.06355437,0,0,0.06355437,9.7138503,182.61226)">
            <title
               id="title4289">澎湖輪廓</title>
            <path
               d="m 369.06589,720.12299 v 1.13593 z"
               id="svg_92"
               inkscape:connector-curvature="0"
               style="fill:#18a303;fill-opacity:1;stroke:none;stroke-opacity:1" />
            <path
               d="m 383.13184,715.01233 0.5632,-1.98737 1.54706,-0.5675 -0.70419,1.13599 -0.42142,1.84497 z"
               id="svg_91"
               inkscape:connector-curvature="0"
               style="fill:#18a303;fill-opacity:1;stroke:none;stroke-opacity:1" />
            <path
               d="m 390.02429,709.47632 1.82751,-0.28369 -0.42145,1.41962 -1.40607,-1.13593 v 0 z"
               id="svg_90"
               inkscape:connector-curvature="0"
               style="fill:#18a303;fill-opacity:1;stroke:none;stroke-opacity:1" />
            <path
               d="m 356.54688,747.37842 -0.14178,1.98737 1.68964,-0.71069 -1.54785,-1.27667 v 0 z"
               id="svg_89"
               inkscape:connector-curvature="0"
               style="fill:#18a303;fill-opacity:1;stroke:none;stroke-opacity:1" />
            <path
               d="m 359.50076,752.34668 -3.37534,1.84509 -1.26587,-0.56836 0.28125,1.8443 4.2182,-0.28229 3.23508,-1.9873 -0.28128,-0.99371 -1.96915,-0.28381 -0.8429,0.42609 v 0 z"
               id="svg_88"
               inkscape:connector-curvature="0"
               style="fill:#18a303;fill-opacity:1;stroke:none;stroke-opacity:1" />
            <path
               d="m 354.01602,716.29065 -0.4924,0.92206 -0.14096,0.64001 0.63336,0.71063 -1.19656,1.13513 0.28122,0.85223 0.84277,0.42529 0.63412,0.56842 0.28049,0.63818 -0.70349,0.35547 -0.5632,1.70422 0.35059,0.92151 -0.91379,0.28369 h -1.05548 l -0.84286,0.56842 0.28046,0.77979 1.12561,0.21387 1.40607,1.84503 v 1.06439 l -0.42145,0.85144 -0.77271,0.56836 -0.5625,0.70996 -0.77353,0.56744 -0.77274,0.21472 -1.40604,-1.27753 -0.98465,0.35461 -0.70499,0.56836 -0.49228,0.77985 -1.19574,1.06531 -0.49237,0.70984 0.70349,0.42609 h 1.05548 l 0.49237,-0.63916 h 3.16574 l 0.56238,-0.49677 0.70428,-0.35468 2.0401,0.35468 0.91382,0.42523 h 1.05548 l 0.9137,-0.42523 -0.35049,-0.92303 -0.5632,-0.70984 -0.28128,-0.78064 -0.07,-0.99371 1.19574,-1.13605 -0.91379,-2.27026 2.88306,-2.62653 -0.27966,-0.71149 -0.77353,-0.56744 -0.14105,-0.92297 0.49237,-1.70355 -0.42221,-0.92212 -0.49231,-0.6391 -0.21109,-0.85144 0.28033,-0.77997 0.77365,-0.49677 h 2.10944 l 1.82898,-0.49683 0.77203,-0.49683 0.14178,-1.06604 -0.56323,-0.49695 -0.84445,0.77899 -0.84436,0.21295 -0.98465,-0.49683 -1.68811,-1.9151 0.21112,-0.92285 -0.28043,-0.77972 -0.8429,0.0707 -0.63403,0.56775 -1.75735,3.26477 -0.70416,0.78003 v 0 z"
               id="svg_87"
               inkscape:connector-curvature="0"
               style="fill:#18a303;fill-opacity:1;stroke:none;stroke-opacity:1" />
            <path
               d="m 365.69055,707.98584 -0.77274,0.77905 0.0709,0.92285 2.38907,1.63452 0.4924,0.85126 0.49225,-0.49677 0.70349,-1.63281 0.70419,-0.49683 2.18109,0.0715 0.42224,0.92212 v 1.06525 l 0.56241,0.63831 0.35138,0.78064 1.75732,1.84497 0.35132,0.99377 0.70337,0.14227 0.63416,-0.78064 0.14099,-1.06445 1.75732,-0.99359 1.05551,-0.14233 -0.0709,-0.92212 -0.98465,-0.92291 -0.42148,-0.63916 0.63327,-1.13593 -1.12561,-0.0716 -1.33594,-2.48413 -0.5625,-0.14233 -0.634,0.42609 -1.68872,-0.49683 -0.21112,-0.85223 -1.05557,-0.14148 -0.98453,0.42529 -0.42148,0.85138 -1.05551,0.21387 -1.82751,-0.21387 -0.84436,-0.42523 -0.21112,-0.49695 -1.19495,1.98901 v 0 z"
               id="svg_86"
               inkscape:connector-curvature="0"
               style="fill:#18a303;fill-opacity:1;stroke:none;stroke-opacity:1" />
            <path
               d="m 375.32568,717.07117 -1.1264,1.49054 1.40607,1.34821 h 1.05557 l 0.77274,-0.49677 0.0708,-0.99371 1.33606,-1.63367 -0.63333,-0.42523 h -1.05551 l -0.98465,0.21381 -0.84134,0.49683 v 0 z"
               id="svg_85"
               inkscape:connector-curvature="0"
               style="fill:#18a303;fill-opacity:1;stroke:none;stroke-opacity:1" />
            <path
               d="m 377.92752,720.19366 -0.9137,0.42609 -0.28046,0.7807 0.28046,0.85065 0.84354,0.42529 h 1.05478 l 0.98465,-0.21301 0.28125,-0.92218 -0.49237,-0.71069 -0.9137,-0.49689 -0.84445,-0.13995 v 0 z"
               id="svg_84"
               inkscape:connector-curvature="0"
               style="fill:#18a303;fill-opacity:1;stroke:none;stroke-opacity:1" />
            <path
               d="m 372.37189,727.22101 -2.32147,1.98737 -0.9137,0.28369 h -1.05545 l 0.49225,0.92224 v 1.06519 l -0.21112,0.99377 -1.40604,1.20667 -0.14182,1.06525 0.77432,0.42529 1.89914,-0.85059 0.77283,-0.56842 1.12643,0.0716 0.70337,0.49683 0.63336,0.70984 -2.11026,2.27112 -1.05557,0.14233 -2.10947,-0.35693 1.19577,1.349 1.61786,0.7099 1.26511,-0.14233 0.91449,-0.56757 3.16501,0.0708 0.63406,0.85138 0.35059,0.92297 -1.05478,1.70349 -0.14096,0.56757 0.91449,0.63995 -0.0708,0.77985 -0.84366,0.85138 -0.91452,-0.0708 -0.63254,-0.56836 -0.84445,-0.42529 -1.05469,0.14227 -1.26587,2.6972 -1.19577,1.27753 0.49237,0.85144 2.03934,0.21301 1.1257,-0.1424 1.40677,-0.49677 1.19656,-0.0708 1.26508,1.41901 0.9137,-0.21387 0.14096,-0.92291 0.84366,-0.77911 0.0709,-0.99359 0.35132,-0.99365 -0.84366,-0.49689 -0.14096,-0.78052 0.70337,-0.77991 0.49234,-0.92212 3.51715,-2.76801 0.9137,-0.14221 1.75815,-2.20129 0.28046,-0.85052 0.77271,-0.64001 4.85306,-0.14215 1.47693,-0.71002 0.6333,0.49695 0.21194,1.06445 0.49225,0.92279 0.84283,0.56769 0.98465,-0.21393 0.77353,-0.42603 h 1.12561 l 0.42145,-0.6391 -2.46155,-2.62567 -0.63257,-2.34271 0.27966,-0.85156 v -1.06433 l -0.42142,-0.92291 -1.89685,-2.05652 -0.49225,-1.63269 -0.5632,0.63898 -0.28049,1.98743 -0.98459,-0.14227 -0.49231,-0.99371 -0.63333,-0.7099 0.28046,-0.63989 0.56241,-0.42529 -1.33514,-1.27655 -0.91379,-0.35547 -0.63406,0.63989 -1.33521,2.48419 -0.7735,-0.14307 -0.7034,0.21301 -1.19736,1.20679 -0.21112,0.85138 -0.56241,0.14221 -0.0708,-3.19403 0.77271,-1.70514 -1.19574,0.14307 -0.63416,0.42609 -4.07944,0.70984 -0.63333,0.49695 0.07,0.99371 0.56329,0.78058 v 1.06433 l -0.42221,0.71063 -0.98462,0.2832 -0.63336,0.77972 v 2.20123 l -0.56241,0.6391 -1.05478,-0.49677 -0.7735,-0.70996 0.14096,-1.41974 -1.12561,-0.14307 -0.14099,-0.99371 0.56241,-0.92126 0.071,-0.64001 -0.69867,-0.84979 v 0 z"
               id="svg_83"
               inkscape:connector-curvature="0"
               style="fill:#18a303;fill-opacity:1;stroke:none;stroke-opacity:1" />
            <path
               d="m 364.28369,737.37012 -0.42145,1.06525 -0.77271,0.35437 -0.28125,0.92224 0.0709,2.05896 1.19656,0.56744 0.35129,0.56848 0.70337,0.63837 0.28128,-0.70996 -0.5632,-0.70996 0.9137,-0.85132 -0.56241,-0.6391 -0.21112,-2.27112 -0.70499,-0.56763"
               id="svg_82"
               inkscape:connector-curvature="0"
               style="fill:#18a303;fill-opacity:1;stroke:none;stroke-opacity:1" />
            <path
               d="m 366.11197,743.82898 v 1.13593 l 3.4462,0.0708 0.42221,-0.63837 -0.56241,-0.70911 -0.84445,-0.63989 -0.42142,-0.63824 -0.21112,0.77966 z"
               id="svg_81"
               inkscape:connector-curvature="0"
               style="fill:#18a303;fill-opacity:1;stroke:none;stroke-opacity:1" />
            <path
               d="m 378.02365,686.99377 -1.49277,2.50885 0.29944,1.3053 0.99484,0.40149 0.89484,-1.4054 0.99475,-0.80292 1.29431,0.20026 0.99484,-0.50153 0.89563,-0.90466 -3.28241,-2.3078 -0.79559,0.10095 z"
               id="svg_80"
               inkscape:connector-curvature="0"
               style="fill:#18a303;fill-opacity:1;stroke:none;stroke-opacity:1" />
            <path
               d="m 309.39481,774.02075 -1.09488,2.50885 1.09488,0.70276 1.29349,-0.30133 1.09491,-0.70276 v -1.00397 l -1.79047,-1.40631 z"
               id="svg_79"
               inkscape:connector-curvature="0"
               style="fill:#18a303;fill-opacity:1;stroke:none;stroke-opacity:1" />
            <path
               d="m 349.9758,778.0368 0.69717,1.50568 v 6.92633 l -0.29932,1.30615 -1.19424,0.50146 0.69714,1.00409 4.37726,0.10016 0.29858,-0.70276 -0.49789,-1.10419 0.49789,-1.00482 1.2934,-0.40143 0.99567,1.10419 0.99487,0.70361 1.19336,-0.40155 0.69635,-0.80371 h 1.49347 l 0.89484,-0.60254 -0.39777,-1.30524 -0.59711,-1.00476 -1.2934,0.50146 -1.59348,1.80695 -3.58096,-2.10736 -0.39783,-1.10498 v -3.01117 l -0.79715,0.20105 -1.49191,-0.10022 -1.98895,-2.00641 v 0 z"
               id="svg_78"
               inkscape:connector-curvature="0"
               style="fill:#18a303;fill-opacity:1;stroke:none;stroke-opacity:1" />
            <path
               d="m 357.83313,810.15564 0.19858,1.50714 1.29337,0.10028 -0.79559,-1.10413 -0.69635,-0.5033 v 0 z"
               id="svg_77"
               inkscape:connector-curvature="0"
               style="fill:#18a303;fill-opacity:1;stroke:none;stroke-opacity:1" />
            <path
               d="m 360.61768,812.36395 -0.39856,1.60663 -0.79642,1.10413 1.29431,-0.40137 1.39261,-1.80609 z"
               id="svg_76"
               inkscape:connector-curvature="0"
               style="fill:#18a303;fill-opacity:1;stroke:none;stroke-opacity:1" />
            <path
               d="m 391.75015,813.56915 -0.69635,1.50635 0.59628,0.90387 v 1.10498 l 0.89566,0.90381 0.59781,-0.10089 v -1.50647 l 0.9949,-1.10419 0.49704,-1.00385 -0.79559,-0.70276 -1.49344,-0.10193 -0.59631,0.10107 v 0 z"
               id="svg_75"
               inkscape:connector-curvature="0"
               style="fill:#18a303;fill-opacity:1;stroke:none;stroke-opacity:1" />
            <path
               d="m 335.354,823.70697 -2.48599,0.90503 -0.29901,1.20398 0.29901,1.40601 0.89499,0.703 v 1.50604 l 1.39401,1.90698 0.49799,0.20099 0.099,-1.40601 1.194,-0.80298 1.194,-0.302 0.29901,-2.91101 0.995,-0.90399 -1.98901,-1.60602 -2.09299,0.1 v 0 0 z"
               id="svg_74"
               inkscape:connector-curvature="0"
               style="fill:#18a303;fill-opacity:1;stroke:none;stroke-opacity:1" />
          </g>
          <path
             style="fill:#18a303;fill-opacity:1;stroke:none;stroke-width:0.06355437;stroke-opacity:1"
             inkscape:connector-curvature="0"
             id="outline-lyo-chiuo"
             d="m 44.369309,247.50415 -0.176818,0.31399 0.04913,0.0452 0.06258,0.018 0.134129,-0.0406 0.02681,-0.0541 0.15199,-0.16243 0.142931,-0.0902 0.02241,-0.0496 -0.01345,-0.0541 -0.05362,-0.0271 -0.02233,-0.0451 -0.04465,-0.0362 -0.06258,0.004 -0.10283,0.0496 -0.03586,0.0406 -0.04474,0.0226 -0.02681,0.0452 -0.0062,0.0198 v 0 z">
            <title
               id="title4291">琉球輪廓</title>
          </path>
          <path
             style="fill:#18a303;fill-opacity:1;stroke:none;stroke-width:0.06355437;stroke-opacity:1"
             inkscape:connector-curvature="0"
             id="outline-lu-dao"
             d="m 60.462926,242.77295 v 0.13534 l 0.116146,0.0812 0.03577,0.1263 v 0.1353 l 0.05371,0.0631 0.125155,0.018 0.125153,0.15338 0.125164,0.036 0.08935,-0.018 -0.08926,-0.0902 -0.009,-0.10827 0.142928,-0.20749 v -0.13535 l -0.02672,-0.11727 -0.08043,-0.0631 -0.134121,0.009 -0.11619,-0.0541 -0.259273,0.0452 -0.09832,-0.009 v 0 z">
            <title
               id="title4293">綠島輪廓</title>
          </path>
          <path
             style="fill:#18a303;fill-opacity:1;stroke:none;stroke-width:0.06355437;stroke-opacity:1"
             inkscape:connector-curvature="0"
             id="outline-lan-yu"
             d="m 63.287004,252.28594 0.07155,0.0993 0.08042,0.0722 h 0.134065 l 0.125147,0.027 0.06258,-0.018 0.03586,-0.0992 0.06258,-0.0812 0.01784,-0.11721 -0.116233,-0.0541 -0.08034,-0.0812 -0.09837,-0.027 -0.214516,-0.18946 -0.03577,-0.0993 0.009,-0.1263 0.125164,-0.009 -0.009,-0.10827 -0.07155,-0.0722 -0.01776,-0.1172 0.06258,-0.0722 -0.05362,-0.0811 -0.491706,0.009 -0.09836,0.036 h -0.268134 l -0.08042,-0.0541 -0.08042,0.0179 v 0.0902 l 0.09831,0.0632 v 0.39695 l 0.05362,0.0811 0.125153,0.0452 0.25031,0.31576 h 0.268177 l 0.107286,0.0723 0.02672,0.0811 v 0 z">
            <title
               id="title4295">蘭嶼輪廓</title>
          </path>
        </g>
      </g>
    </g>
  </g>
  <g
     inkscape:groupmode="layer"
     id="layer3"
     inkscape:label="台版"
     style="display:none">
    <text
       transform="translate(0,-197.00002)"
       xml:space="preserve"
       style="font-style:normal;font-variant:normal;font-weight:normal;font-stretch:normal;font-size:10.58333302px;line-height:52.91666412px;font-family:'思源黑體 TW';-inkscape-font-specification:'思源黑體 TW';letter-spacing:0px;word-spacing:0px;fill:#000000;fill-opacity:1;stroke:none;stroke-width:0.26458332px;stroke-linecap:butt;stroke-linejoin:miter;stroke-opacity:1"
       x="12.609083"
       y="269.55307"
       id="brand-zh-tw-new-tai"><title
         id="title4281">「台」版品牌名</title><tspan
         sodipodi:role="line"
         x="12.609083"
         y="269.55307"
         style="font-style:normal;font-variant:normal;font-weight:normal;font-stretch:normal;font-family:'思源黑體 TW';-inkscape-font-specification:'思源黑體 TW';stroke-width:0.26458332px"
         id="tspan32">台灣在地化社群</tspan></text>
  </g>
  <g
     inkscape:groupmode="layer"
     id="layer2"
     inkscape:label="臺版"
     style="display:inline">
    <a
       id="brand-zh-tw-original-tai">
      <title
         id="title4279">「臺」版品牌名</title>
      <text
         id="text30-3"
         y="269.57098"
         x="12.593857"
         style="font-style:normal;font-variant:normal;font-weight:normal;font-stretch:normal;font-size:10.58333302px;line-height:52.91666794px;font-family:'思源黑體 TW';-inkscape-font-specification:'思源黑體 TW';letter-spacing:0px;word-spacing:0px;fill:#000000;fill-opacity:1;stroke:none;stroke-width:0.26458332px;stroke-linecap:butt;stroke-linejoin:miter;stroke-opacity:1"
         xml:space="preserve"
         transform="translate(0,-197.00002)"><tspan
           id="tspan32-6"
           style="font-style:normal;font-variant:normal;font-weight:normal;font-stretch:normal;font-family:'思源黑體 TW';-inkscape-font-specification:'思源黑體 TW';stroke-width:0.26458332px"
           y="269.57098"
           x="12.593857"
           sodipodi:role="line">臺灣在地化社群</tspan></text>
    </a>
  </g>
</svg>
